<svg width="151" height="45" viewBox="0 0 151 45" fill="none" xmlns="http://www.w3.org/2000/svg">
<path d="M3.63531 16.12L5.25531 16.32C5.30865 16.52 5.30865 16.7667 5.25531 17.06C4.41531 17.02 3.70865 17 3.13531 17C2.81531 17 2.09531 17.0133 0.975312 17.04C0.895312 16.8 0.895312 16.56 0.975312 16.32L2.29531 16.08C2.50865 15.76 2.77531 15.1667 3.09531 14.3L8.25531 0.499999H8.95531L14.7553 16.12L16.3753 16.32C16.4286 16.52 16.4286 16.7667 16.3753 17.06C15.5353 17.02 14.5953 17 13.5553 17C12.782 17 11.8353 17.0133 10.7153 17.04C10.6353 16.8 10.6353 16.56 10.7153 16.32L12.3753 16.08L10.6153 11.14H5.41531L3.63531 16.12ZM8.07531 3.52H8.05531C7.89531 4.14667 7.63531 4.96667 7.27531 5.98L5.77531 10.14H10.2553L8.79531 5.98C8.51531 5.16667 8.27531 4.34667 8.07531 3.52ZM31.44 9.86C31.44 8.00667 30.8467 7.08 29.66 7.08C28.6467 7.08 27.6867 7.78 26.78 9.18V15.98L28.4 16.28C28.4533 16.4933 28.4533 16.76 28.4 17.08C27.56 17.04 26.7067 17.02 25.84 17.02C25.2267 17.02 24.36 17.0333 23.24 17.06C23.16 16.8067 23.16 16.5467 23.24 16.28L24.82 16.06C24.8733 15.3267 24.9 14.48 24.9 13.52V9.86C24.9 8.00667 24.3067 7.08 23.12 7.08C22.52 7.08 21.9933 7.26667 21.54 7.64C21.0867 8 20.62 8.56667 20.14 9.34V15.98L21.76 16.28C21.8133 16.4933 21.8133 16.76 21.76 17.08C20.92 17.04 20.0667 17.02 19.2 17.02C18.5867 17.02 17.72 17.0333 16.6 17.06C16.52 16.8067 16.52 16.5467 16.6 16.28L18.18 16.06C18.2333 15.3267 18.26 14.48 18.26 13.52V8.04C18.26 7.77333 18.24 7.52667 18.2 7.3L16.62 7.1C16.5667 6.9 16.5667 6.64667 16.62 6.34C17.5133 6.27333 18.6533 6.13333 20.04 5.92C20.16 6.05333 20.2267 6.18667 20.24 6.32C20.1733 6.66667 20.14 7.26 20.14 8.1C21.1933 6.64667 22.38 5.92 23.7 5.92C24.3933 5.92 25.0267 6.1 25.6 6.46C26.1733 6.80667 26.54 7.34667 26.7 8.08C27.7667 6.64 28.9467 5.92 30.24 5.92C31.0533 5.92 31.7667 6.16 32.38 6.64C33.0067 7.12 33.32 7.86 33.32 8.86V15.98L34.94 16.28C34.9933 16.4933 34.9933 16.76 34.94 17.08C34.1 17.04 33.2467 17.02 32.38 17.02C31.7667 17.02 30.9 17.0333 29.78 17.06C29.7 16.8067 29.7 16.5467 29.78 16.28L31.36 16.06C31.4133 15.3267 31.44 14.48 31.44 13.52V9.86ZM44.4388 11.36H38.1587C38.0388 14.76 39.0588 16.46 41.2188 16.46C42.1388 16.46 43.0788 16.0533 44.0388 15.24C44.2388 15.36 44.3921 15.5667 44.4988 15.86C43.5788 16.8867 42.4121 17.4 40.9988 17.4C37.7454 17.4 36.1188 15.4867 36.1188 11.66C36.1188 9.84667 36.5988 8.44 37.5588 7.44C38.5188 6.42667 39.6388 5.92 40.9188 5.92C42.3188 5.92 43.3254 6.40667 43.9388 7.38C44.5521 8.35333 44.8588 9.62 44.8588 11.18C44.7254 11.2867 44.5854 11.3467 44.4388 11.36ZM40.8788 6.72C40.1854 6.72 39.5921 7.08 39.0988 7.8C38.6188 8.52 38.3254 9.44 38.2188 10.56H40.6988C41.6854 10.56 42.3921 10.5 42.8188 10.38C42.8188 9.28667 42.6521 8.40667 42.3188 7.74C41.9854 7.06 41.5054 6.72 40.8788 6.72ZM49.9866 6.32L49.9466 8.38C50.2799 7.76667 50.7399 7.20667 51.3266 6.7C51.9266 6.18 52.4932 5.92 53.0266 5.92C53.4399 5.92 53.8066 5.96667 54.1266 6.06C54.2332 6.23333 54.2866 6.46 54.2866 6.74C54.2866 7.18 54.1932 7.62 54.0066 8.06C53.5266 7.92667 53.0666 7.86 52.6266 7.86C51.5332 7.86 50.6332 8.39333 49.9266 9.46L49.8866 12.96V15.98L52.1066 16.28C52.1599 16.4933 52.1599 16.76 52.1066 17.08C51.2666 17.04 50.3066 17.02 49.2266 17.02C48.4132 17.02 47.4466 17.0333 46.3266 17.06C46.2466 16.8067 46.2466 16.5467 46.3266 16.28L47.9066 16.06C47.9599 15.3267 47.9866 14.48 47.9866 13.52V8.04C47.9866 7.77333 47.9666 7.52667 47.9266 7.3L46.3466 7.1C46.2932 6.9 46.2932 6.64667 46.3466 6.34C47.2666 6.27333 48.4132 6.13333 49.7866 5.92C49.9066 6.05333 49.9732 6.18667 49.9866 6.32ZM58.578 9.56V15.98L60.198 16.28C60.2113 16.3467 60.218 16.4067 60.218 16.46C60.2313 16.5133 60.238 16.5733 60.238 16.64C60.238 16.7067 60.2313 16.78 60.218 16.86C60.218 16.9267 60.2113 17 60.198 17.08C59.358 17.04 58.498 17.02 57.618 17.02C57.3113 17.02 56.938 17.02 56.498 17.02C56.0713 17.0333 55.578 17.0467 55.018 17.06C54.978 16.94 54.958 16.8133 54.958 16.68C54.958 16.56 54.978 16.4267 55.018 16.28L56.598 16.06C56.6246 15.6867 56.6446 15.2933 56.658 14.88C56.6713 14.4533 56.678 14 56.678 13.52V9.26C56.678 8.38 56.658 7.72667 56.618 7.3L55.038 7.1C55.0113 7.03333 54.998 6.92 54.998 6.76C54.998 6.69333 54.998 6.62667 54.998 6.56C54.998 6.49333 55.0113 6.42 55.038 6.34C55.9446 6.28667 57.0913 6.14667 58.478 5.92C58.598 6.05333 58.6646 6.18667 58.678 6.32C58.6113 6.69333 58.578 7.77333 58.578 9.56ZM55.658 2.42C55.6313 2.35333 55.618 2.28667 55.618 2.22C55.618 2.14 55.618 2.06667 55.618 2C55.618 1.64 55.7646 1.35333 56.058 1.14C56.3646 0.913332 56.738 0.799999 57.178 0.799999C57.5913 0.799999 57.9246 0.926666 58.178 1.18C58.4446 1.42 58.578 1.75333 58.578 2.18C58.578 2.52667 58.4246 2.80667 58.118 3.02C57.8246 3.23333 57.4446 3.34 56.978 3.34C56.658 3.34 56.3713 3.26 56.118 3.1C55.878 2.94 55.7246 2.71333 55.658 2.42ZM70.1694 8.88C69.8894 9.17333 69.2294 9.31333 68.1894 9.3C67.976 7.62 67.3694 6.78 66.3694 6.78C65.5827 6.78 64.916 7.23333 64.3694 8.14C63.8227 9.04667 63.5494 10.24 63.5494 11.72C63.5494 13.24 63.7894 14.4133 64.2694 15.24C64.7494 16.0533 65.4694 16.46 66.4294 16.46C67.4427 16.46 68.436 16.0467 69.4094 15.22C69.6094 15.34 69.7627 15.5467 69.8694 15.84C68.896 16.88 67.676 17.4 66.2094 17.4C64.8094 17.4 63.6627 16.92 62.7694 15.96C61.876 14.9867 61.4294 13.56 61.4294 11.68C61.4294 9.88 61.9227 8.47333 62.9094 7.46C63.9094 6.43333 65.0494 5.92 66.3294 5.92C67.3427 5.92 68.236 6.17333 69.0094 6.68C69.7827 7.18667 70.1694 7.92 70.1694 8.88ZM73.5438 14.34C73.5438 15.0333 73.6704 15.5267 73.9238 15.82C74.1771 16.1 74.5771 16.24 75.1238 16.24C75.5238 16.24 75.9638 16.12 76.4438 15.88C76.9371 15.6267 77.3904 15.2667 77.8038 14.8V11.68C76.4304 11.76 75.3771 12.0067 74.6438 12.42C73.9104 12.82 73.5438 13.46 73.5438 14.34ZM77.8038 10.96V9.94C77.8038 8.80667 77.6704 7.98667 77.4038 7.48C77.1504 6.96 76.7238 6.7 76.1237 6.7C75.5104 6.7 75.0171 6.9 74.6438 7.3C74.2704 7.68667 74.0171 8.35333 73.8838 9.3C73.4571 9.39333 73.1438 9.44 72.9438 9.44C72.4238 9.44 72.1171 9.25333 72.0238 8.88C72.0238 7.97333 72.4171 7.25333 73.2038 6.72C73.9904 6.18667 74.9704 5.92 76.1438 5.92C77.4371 5.92 78.3504 6.18667 78.8838 6.72C79.4304 7.24 79.7038 8.18 79.7038 9.54V15.18C79.7038 15.5133 79.7238 15.8 79.7638 16.04L81.3438 16.24C81.3971 16.44 81.3971 16.6933 81.3438 17C80.3971 17.04 79.3904 17.1333 78.3238 17.28C78.2171 17.1733 78.1504 17.04 78.1238 16.88L78.0238 15.5C76.9171 16.7667 75.6838 17.4 74.3238 17.4C73.4838 17.4 72.8238 17.16 72.3438 16.68C71.8771 16.2 71.6438 15.5533 71.6438 14.74C71.6438 13.5133 72.1971 12.5867 73.3038 11.96C74.4238 11.3333 75.9238 11 77.8038 10.96ZM90.4473 9.86C90.4473 8.83333 90.3073 8.11333 90.0273 7.7C89.7607 7.28667 89.3073 7.08 88.6673 7.08C87.6807 7.08 86.6873 7.82 85.6873 9.3V15.98L87.3073 16.28C87.3607 16.4933 87.3607 16.76 87.3073 17.08C86.4673 17.04 85.6073 17.02 84.7273 17.02C84.114 17.02 83.2473 17.0333 82.1273 17.06C82.0473 16.8067 82.0473 16.5467 82.1273 16.28L83.7073 16.06C83.7607 15.3267 83.7873 14.48 83.7873 13.52V8.04C83.7873 7.77333 83.7673 7.52667 83.7273 7.3L82.1473 7.1C82.094 6.9 82.094 6.64667 82.1473 6.34C83.0673 6.27333 84.214 6.13333 85.5873 5.92C85.7073 6.05333 85.774 6.18667 85.7873 6.32C85.7207 6.66667 85.6873 7.26 85.6873 8.1C86.7407 6.64667 87.9273 5.92 89.2473 5.92C91.314 5.92 92.3473 6.9 92.3473 8.86V15.98L93.9673 16.28C94.0207 16.4933 94.0207 16.76 93.9673 17.08C93.1273 17.04 92.2673 17.02 91.3873 17.02C90.774 17.02 89.9073 17.0333 88.7873 17.06C88.7073 16.8067 88.7073 16.5467 88.7873 16.28L90.3673 16.06C90.4207 15.3267 90.4473 14.48 90.4473 13.52V9.86Z" fill="#FF0000"/>
<path d="M108.182 14.04C108.408 14.1867 108.582 14.44 108.702 14.8C106.848 16.5333 104.968 17.4 103.062 17.4C101.755 17.4 100.615 17.1667 99.6417 16.7C98.6684 16.22 97.8617 15.5933 97.2217 14.82C96.5817 14.0333 96.1017 13.1467 95.7817 12.16C95.4751 11.16 95.3217 10.14 95.3217 9.1C95.3217 8.04667 95.5017 7.02 95.8617 6.02C96.2217 5.00667 96.7484 4.10667 97.4417 3.32C98.1351 2.52 98.9884 1.88 100.002 1.4C101.028 0.919999 102.195 0.679999 103.502 0.679999C105.222 0.679999 106.822 1.08 108.302 1.88V5.72C108.062 5.76 107.848 5.78 107.662 5.78C107.462 5.78 107.295 5.76 107.162 5.72L106.522 2.38C105.708 1.84667 104.622 1.58 103.262 1.58C102.422 1.58 101.662 1.77333 100.982 2.16C100.315 2.53333 99.7417 3.04667 99.2617 3.7C98.7951 4.34 98.4351 5.1 98.1817 5.98C97.9284 6.84667 97.8017 7.77333 97.8017 8.76C97.8017 9.81333 97.9217 10.7867 98.1617 11.68C98.4151 12.5733 98.7684 13.3467 99.2217 14C99.6751 14.6533 100.222 15.1667 100.862 15.54C101.515 15.9 102.242 16.08 103.042 16.08C104.002 16.08 104.928 15.8933 105.822 15.52C106.715 15.1467 107.502 14.6533 108.182 14.04ZM113.417 4.32V15.98L115.037 16.28C115.09 16.4933 115.09 16.76 115.037 17.08C114.197 17.04 113.337 17.02 112.457 17.02C111.843 17.02 110.977 17.0333 109.857 17.06C109.777 16.8067 109.777 16.5467 109.857 16.28L111.437 16.06C111.49 15.3267 111.517 14.48 111.517 13.52V2.06L109.877 1.86C109.823 1.66 109.823 1.40667 109.877 1.1C110.797 1.03333 111.943 0.893333 113.317 0.679999C113.437 0.813332 113.503 0.946666 113.517 1.08C113.45 1.42667 113.417 2.50667 113.417 4.32ZM119.613 9.56V15.98L121.233 16.28C121.246 16.3467 121.253 16.4067 121.253 16.46C121.266 16.5133 121.273 16.5733 121.273 16.64C121.273 16.7067 121.266 16.78 121.253 16.86C121.253 16.9267 121.246 17 121.233 17.08C120.393 17.04 119.533 17.02 118.653 17.02C118.346 17.02 117.973 17.02 117.533 17.02C117.106 17.0333 116.613 17.0467 116.053 17.06C116.013 16.94 115.993 16.8133 115.993 16.68C115.993 16.56 116.013 16.4267 116.053 16.28L117.633 16.06C117.66 15.6867 117.68 15.2933 117.693 14.88C117.706 14.4533 117.713 14 117.713 13.52V9.26C117.713 8.38 117.693 7.72667 117.653 7.3L116.073 7.1C116.046 7.03333 116.033 6.92 116.033 6.76C116.033 6.69333 116.033 6.62667 116.033 6.56C116.033 6.49333 116.046 6.42 116.073 6.34C116.98 6.28667 118.126 6.14667 119.513 5.92C119.633 6.05333 119.7 6.18667 119.713 6.32C119.646 6.69333 119.613 7.77333 119.613 9.56ZM116.693 2.42C116.666 2.35333 116.653 2.28667 116.653 2.22C116.653 2.14 116.653 2.06667 116.653 2C116.653 1.64 116.8 1.35333 117.093 1.14C117.4 0.913332 117.773 0.799999 118.213 0.799999C118.626 0.799999 118.96 0.926666 119.213 1.18C119.48 1.42 119.613 1.75333 119.613 2.18C119.613 2.52667 119.46 2.80667 119.153 3.02C118.86 3.23333 118.48 3.34 118.013 3.34C117.693 3.34 117.406 3.26 117.153 3.1C116.913 2.94 116.76 2.71333 116.693 2.42ZM130.565 9.86C130.565 8.83333 130.425 8.11333 130.145 7.7C129.878 7.28667 129.425 7.08 128.785 7.08C127.798 7.08 126.805 7.82 125.805 9.3V15.98L127.425 16.28C127.478 16.4933 127.478 16.76 127.425 17.08C126.585 17.04 125.725 17.02 124.845 17.02C124.231 17.02 123.365 17.0333 122.245 17.06C122.165 16.8067 122.165 16.5467 122.245 16.28L123.825 16.06C123.878 15.3267 123.905 14.48 123.905 13.52V8.04C123.905 7.77333 123.885 7.52667 123.845 7.3L122.265 7.1C122.211 6.9 122.211 6.64667 122.265 6.34C123.185 6.27333 124.331 6.13333 125.705 5.92C125.825 6.05333 125.891 6.18667 125.905 6.32C125.838 6.66667 125.805 7.26 125.805 8.1C126.858 6.64667 128.045 5.92 129.365 5.92C131.431 5.92 132.465 6.9 132.465 8.86V15.98L134.085 16.28C134.138 16.4933 134.138 16.76 134.085 17.08C133.245 17.04 132.385 17.02 131.505 17.02C130.891 17.02 130.025 17.0333 128.905 17.06C128.825 16.8067 128.825 16.5467 128.905 16.28L130.485 16.06C130.538 15.3267 130.565 14.48 130.565 13.52V9.86ZM138.539 9.56V15.98L140.159 16.28C140.172 16.3467 140.179 16.4067 140.179 16.46C140.192 16.5133 140.199 16.5733 140.199 16.64C140.199 16.7067 140.192 16.78 140.179 16.86C140.179 16.9267 140.172 17 140.159 17.08C139.319 17.04 138.459 17.02 137.579 17.02C137.272 17.02 136.899 17.02 136.459 17.02C136.032 17.0333 135.539 17.0467 134.979 17.06C134.939 16.94 134.919 16.8133 134.919 16.68C134.919 16.56 134.939 16.4267 134.979 16.28L136.559 16.06C136.586 15.6867 136.606 15.2933 136.619 14.88C136.632 14.4533 136.639 14 136.639 13.52V9.26C136.639 8.38 136.619 7.72667 136.579 7.3L134.999 7.1C134.972 7.03333 134.959 6.92 134.959 6.76C134.959 6.69333 134.959 6.62667 134.959 6.56C134.959 6.49333 134.972 6.42 134.999 6.34C135.906 6.28667 137.052 6.14667 138.439 5.92C138.559 6.05333 138.626 6.18667 138.639 6.32C138.572 6.69333 138.539 7.77333 138.539 9.56ZM135.619 2.42C135.592 2.35333 135.579 2.28667 135.579 2.22C135.579 2.14 135.579 2.06667 135.579 2C135.579 1.64 135.726 1.35333 136.019 1.14C136.326 0.913332 136.699 0.799999 137.139 0.799999C137.552 0.799999 137.886 0.926666 138.139 1.18C138.406 1.42 138.539 1.75333 138.539 2.18C138.539 2.52667 138.386 2.80667 138.079 3.02C137.786 3.23333 137.406 3.34 136.939 3.34C136.619 3.34 136.332 3.26 136.079 3.1C135.839 2.94 135.686 2.71333 135.619 2.42ZM150.13 8.88C149.85 9.17333 149.19 9.31333 148.15 9.3C147.937 7.62 147.33 6.78 146.33 6.78C145.544 6.78 144.877 7.23333 144.33 8.14C143.784 9.04667 143.51 10.24 143.51 11.72C143.51 13.24 143.75 14.4133 144.23 15.24C144.71 16.0533 145.43 16.46 146.39 16.46C147.404 16.46 148.397 16.0467 149.37 15.22C149.57 15.34 149.724 15.5467 149.83 15.84C148.857 16.88 147.637 17.4 146.17 17.4C144.77 17.4 143.624 16.92 142.73 15.96C141.837 14.9867 141.39 13.56 141.39 11.68C141.39 9.88 141.884 8.47333 142.87 7.46C143.87 6.43333 145.01 5.92 146.29 5.92C147.304 5.92 148.197 6.17333 148.97 6.68C149.744 7.18667 150.13 7.92 150.13 8.88Z" fill="#002FA7"/>
<path d="M51.9052 27.68C53.2119 27.68 54.3852 27.9133 55.4252 28.38C56.4652 28.8467 57.3052 29.4733 57.9452 30.26C58.5852 31.0333 59.0719 31.9 59.4052 32.86C59.7519 33.8067 59.9252 34.8 59.9252 35.84C59.9252 38.24 59.1719 40.2667 57.6652 41.92C56.1586 43.5733 54.2386 44.4 51.9052 44.4C50.6119 44.4 49.4452 44.1667 48.4052 43.7C47.3652 43.2333 46.5252 42.6133 45.8852 41.84C45.2452 41.0533 44.7519 40.1867 44.4052 39.24C44.0719 38.2933 43.9052 37.3067 43.9052 36.28C43.9052 34.7467 44.2386 33.3267 44.9052 32.02C45.5852 30.7133 46.5386 29.6667 47.7652 28.88C49.0052 28.08 50.3852 27.68 51.9052 27.68ZM51.8852 43.3C53.1386 43.3 54.1986 42.94 55.0652 42.22C55.9452 41.4867 56.5719 40.5667 56.9452 39.46C57.3319 38.3533 57.5252 37.12 57.5252 35.76C57.5252 34.4667 57.3319 33.3133 56.9452 32.3C56.5719 31.2733 55.9519 30.4333 55.0852 29.78C54.2186 29.1133 53.1519 28.78 51.8852 28.78C50.0586 28.78 48.6719 29.4467 47.7252 30.78C46.7786 32.1133 46.3052 33.78 46.3052 35.78C46.3052 37.1533 46.4919 38.3933 46.8652 39.5C47.2386 40.5933 47.8586 41.5 48.7252 42.22C49.5919 42.94 50.6452 43.3 51.8852 43.3ZM69.9102 36.86C69.9102 35.8333 69.7702 35.1133 69.4902 34.7C69.2236 34.2867 68.7702 34.08 68.1302 34.08C67.1436 34.08 66.1502 34.82 65.1502 36.3V42.98L66.7702 43.28C66.8236 43.4933 66.8236 43.76 66.7702 44.08C65.9302 44.04 65.0702 44.02 64.1902 44.02C63.5769 44.02 62.7102 44.0333 61.5902 44.06C61.5102 43.8067 61.5102 43.5467 61.5902 43.28L63.1702 43.06C63.2236 42.3267 63.2502 41.48 63.2502 40.52V35.04C63.2502 34.7733 63.2302 34.5267 63.1902 34.3L61.6102 34.1C61.5569 33.9 61.5569 33.6467 61.6102 33.34C62.5302 33.2733 63.6769 33.1333 65.0502 32.92C65.1702 33.0533 65.2369 33.1867 65.2502 33.32C65.1836 33.6667 65.1502 34.26 65.1502 35.1C66.2036 33.6467 67.3902 32.92 68.7102 32.92C70.7769 32.92 71.8102 33.9 71.8102 35.86V42.98L73.4302 43.28C73.4836 43.4933 73.4836 43.76 73.4302 44.08C72.5902 44.04 71.7302 44.02 70.8502 44.02C70.2369 44.02 69.3702 44.0333 68.2502 44.06C68.1702 43.8067 68.1702 43.5467 68.2502 43.28L69.8302 43.06C69.8836 42.3267 69.9102 41.48 69.9102 40.52V36.86ZM77.6646 31.32V42.98L79.2846 43.28C79.3379 43.4933 79.3379 43.76 79.2846 44.08C78.4446 44.04 77.5846 44.02 76.7046 44.02C76.0913 44.02 75.2246 44.0333 74.1046 44.06C74.0246 43.8067 74.0246 43.5467 74.1046 43.28L75.6846 43.06C75.7379 42.3267 75.7646 41.48 75.7646 40.52V29.06L74.1246 28.86C74.0713 28.66 74.0713 28.4067 74.1246 28.1C75.0446 28.0333 76.1913 27.8933 77.5646 27.68C77.6846 27.8133 77.7513 27.9467 77.7646 28.08C77.6979 28.4267 77.6646 29.5067 77.6646 31.32ZM83.8612 36.56V42.98L85.4812 43.28C85.4945 43.3467 85.5012 43.4067 85.5012 43.46C85.5145 43.5133 85.5212 43.5733 85.5212 43.64C85.5212 43.7067 85.5145 43.78 85.5012 43.86C85.5012 43.9267 85.4945 44 85.4812 44.08C84.6412 44.04 83.7812 44.02 82.9012 44.02C82.5945 44.02 82.2212 44.02 81.7812 44.02C81.3545 44.0333 80.8612 44.0467 80.3012 44.06C80.2612 43.94 80.2412 43.8133 80.2412 43.68C80.2412 43.56 80.2612 43.4267 80.3012 43.28L81.8812 43.06C81.9078 42.6867 81.9278 42.2933 81.9412 41.88C81.9545 41.4533 81.9612 41 81.9612 40.52V36.26C81.9612 35.38 81.9412 34.7267 81.9012 34.3L80.3212 34.1C80.2945 34.0333 80.2812 33.92 80.2812 33.76C80.2812 33.6933 80.2812 33.6267 80.2812 33.56C80.2812 33.4933 80.2945 33.42 80.3212 33.34C81.2278 33.2867 82.3745 33.1467 83.7612 32.92C83.8812 33.0533 83.9478 33.1867 83.9612 33.32C83.8945 33.6933 83.8612 34.7733 83.8612 36.56ZM80.9412 29.42C80.9145 29.3533 80.9012 29.2867 80.9012 29.22C80.9012 29.14 80.9012 29.0667 80.9012 29C80.9012 28.64 81.0478 28.3533 81.3412 28.14C81.6478 27.9133 82.0212 27.8 82.4612 27.8C82.8745 27.8 83.2078 27.9267 83.4612 28.18C83.7278 28.42 83.8612 28.7533 83.8612 29.18C83.8612 29.5267 83.7078 29.8067 83.4012 30.02C83.1078 30.2333 82.7278 30.34 82.2612 30.34C81.9412 30.34 81.6545 30.26 81.4012 30.1C81.1612 29.94 81.0078 29.7133 80.9412 29.42ZM94.8126 36.86C94.8126 35.8333 94.6726 35.1133 94.3926 34.7C94.1259 34.2867 93.6726 34.08 93.0326 34.08C92.0459 34.08 91.0526 34.82 90.0526 36.3V42.98L91.6726 43.28C91.7259 43.4933 91.7259 43.76 91.6726 44.08C90.8326 44.04 89.9726 44.02 89.0926 44.02C88.4792 44.02 87.6126 44.0333 86.4926 44.06C86.4126 43.8067 86.4126 43.5467 86.4926 43.28L88.0726 43.06C88.1259 42.3267 88.1526 41.48 88.1526 40.52V35.04C88.1526 34.7733 88.1326 34.5267 88.0926 34.3L86.5126 34.1C86.4592 33.9 86.4592 33.6467 86.5126 33.34C87.4326 33.2733 88.5792 33.1333 89.9526 32.92C90.0726 33.0533 90.1392 33.1867 90.1526 33.32C90.0859 33.6667 90.0526 34.26 90.0526 35.1C91.1059 33.6467 92.2926 32.92 93.6126 32.92C95.6792 32.92 96.7126 33.9 96.7126 35.86V42.98L98.3326 43.28C98.3859 43.4933 98.3859 43.76 98.3326 44.08C97.4926 44.04 96.6326 44.02 95.7526 44.02C95.1392 44.02 94.2726 44.0333 93.1526 44.06C93.0726 43.8067 93.0726 43.5467 93.1526 43.28L94.7326 43.06C94.7859 42.3267 94.8126 41.48 94.8126 40.52V36.86ZM107.847 38.36H101.567C101.447 41.76 102.467 43.46 104.627 43.46C105.547 43.46 106.487 43.0533 107.447 42.24C107.647 42.36 107.8 42.5667 107.907 42.86C106.987 43.8867 105.82 44.4 104.407 44.4C101.154 44.4 99.527 42.4867 99.527 38.66C99.527 36.8467 100.007 35.44 100.967 34.44C101.927 33.4267 103.047 32.92 104.327 32.92C105.727 32.92 106.734 33.4067 107.347 34.38C107.96 35.3533 108.267 36.62 108.267 38.18C108.134 38.2867 107.994 38.3467 107.847 38.36ZM104.287 33.72C103.594 33.72 103 34.08 102.507 34.8C102.027 35.52 101.734 36.44 101.627 37.56H104.107C105.094 37.56 105.8 37.5 106.227 37.38C106.227 36.2867 106.06 35.4067 105.727 34.74C105.394 34.06 104.914 33.72 104.287 33.72Z" fill="black"/>
</svg>
