<svg width="18" height="16" viewBox="0 0 18 16" fill="none" xmlns="http://www.w3.org/2000/svg">
<g clip-path="url(#clip0_1042_829)">
<path d="M15 4C13.8953 4 13 4.89531 13 5.97187C13 6.81062 13.5175 7.52656 14.25 7.82344V10.75C14.25 12.8175 12.5678 14.5 10.5 14.5C8.49125 14.5 6.85938 12.9084 6.76875 10.9219C9.15938 10.55 11 8.49375 11 5.97187V1.78437C11 1.50019 10.8393 1.24031 10.5853 1.11344L8.46031 0.0509368C8.09063 -0.105532 7.64062 0.0438743 7.45312 0.414999C7.26875 0.784999 7.41875 1.23531 7.79063 1.42094L9.5 2.27625V6C9.5 7.92969 7.92969 9.5 6 9.5C4.07031 9.5 2.5 7.93125 2.5 6V2.27625L4.21031 1.42062C4.58125 1.23531 4.73125 0.784999 4.54688 0.414999C4.3625 0.0438743 3.9125 -0.105532 3.54063 0.0790305L1.41562 1.14153C1.16062 1.26844 1 1.52812 1 1.78437V5.97187C1 8.47812 2.85969 10.5406 5.26875 10.8969C5.3625 13.7375 7.66563 16 10.5 16C13.395 16 15.75 13.6444 15.75 10.75V7.85312C16.4812 7.55625 17 6.8375 17 6C17 4.89687 16.1031 4 15 4ZM15 6.5C14.7243 6.5 14.5 6.27569 14.5 6C14.5 5.72431 14.7243 5.5 15 5.5C15.2757 5.5 15.5 5.72431 15.5 6C15.5 6.27569 15.275 6.5 15 6.5Z" fill="#002FA7"/>
</g>
<defs>
<clipPath id="clip0_1042_829">
<rect width="18" height="16" fill="white"/>
</clipPath>
</defs>
</svg>
