<svg width="13" height="13" viewBox="0 0 13 13" fill="none" xmlns="http://www.w3.org/2000/svg">
<path d="M12.9898 0.936179L11.3648 11.4758C11.3267 11.723 11.1775 11.9384 10.9593 12.0611C10.8363 12.1301 10.6986 12.1651 10.5612 12.1651C10.4549 12.1651 10.35 12.1444 10.2491 12.1023L7.13625 10.8049L5.84488 12.7419C5.74586 12.9114 5.58082 13.0003 5.40309 13.0003C5.11109 13.0003 4.87496 12.7641 4.87496 12.4722V10.0301C4.87496 9.84943 4.93519 9.67386 5.04614 9.53141L10.5625 2.43778L3.10523 9.14852L0.499902 8.0618C0.214207 7.94247 0.0205904 7.67333 0.00154748 7.34071C-0.0174955 7.00809 0.140409 6.73844 0.409321 6.58483L11.7843 0.107683C12.0557 -0.0474286 12.3906 -0.0331591 12.6476 0.143382C12.9046 0.319923 13.038 0.627937 12.9898 0.936179Z" fill="white"/>
</svg>
