<svg width="18" height="16" viewBox="0 0 18 16" fill="none" xmlns="http://www.w3.org/2000/svg">
<path d="M17.425 3.19688C17.0647 2.96544 16.6163 2.93466 16.2288 3.11287L13 4.59375V4C13 2.89531 12.1047 2 11 2H2C0.895313 2 0 2.89531 0 4V12C0 13.1047 0.895313 14 2 14H11C12.1047 14 13 13.1047 13 12V11.4056L16.2281 12.8856C16.3951 12.9623 16.5728 13.0004 16.7497 13.0004C16.985 13.0004 17.2191 12.9335 17.4244 12.8017C17.7844 12.5719 18 12.1781 18 11.7219V4.25C18 3.82187 17.7844 3.43125 17.425 3.19688ZM11.5 12C11.5 12.2757 11.2757 12.5 11 12.5H2C1.72431 12.5 1.5 12.2757 1.5 12V4C1.5 3.72431 1.72431 3.5 2 3.5H11C11.2757 3.5 11.5 3.72431 11.5 4V12ZM16.5 11.3594L13 9.75625V6.24375L16.5 4.63969V11.3594Z" fill="#002FA7"/>
</svg>
