<?xml version="1.0" encoding="UTF-8"?>
<svg xmlns="http://www.w3.org/2000/svg" xmlns:xlink="http://www.w3.org/1999/xlink" width="100px" height="69px" viewBox="0 0 99 69" version="1.1">
<g id="surface1">
<path style=" stroke:none;fill-rule:nonzero;fill:rgb(0%,0%,0%);fill-opacity:1;" d="M 50.691406 11.988281 C 49.511719 12.714844 49.023438 13.074219 49.082031 13.160156 C 49.121094 13.207031 49.070312 13.242188 48.988281 13.230469 C 48.90625 13.230469 48.703125 13.3125 48.535156 13.421875 C 48.382812 13.542969 47.738281 13.984375 47.121094 14.425781 C 46.0625 15.179688 45.527344 15.597656 45.917969 15.371094 C 46.039062 15.3125 46.0625 15.324219 46 15.417969 C 45.953125 15.492188 45.859375 15.527344 45.800781 15.480469 C 45.65625 15.394531 44.964844 15.96875 45.074219 16.089844 C 45.121094 16.148438 45.097656 16.148438 45.027344 16.113281 C 44.871094 16.019531 44.074219 16.59375 44.121094 16.757812 C 44.132812 16.832031 44.097656 16.855469 44.027344 16.808594 C 43.96875 16.773438 43.417969 17.082031 42.8125 17.488281 C 40.992188 18.734375 41.171875 18.734375 39.601562 17.632812 C 38.863281 17.128906 37.933594 16.449219 37.53125 16.136719 C 37.125 15.816406 36.757812 15.597656 36.707031 15.648438 C 36.648438 15.695312 36.648438 15.671875 36.695312 15.585938 C 36.746094 15.503906 36.683594 15.394531 36.554688 15.324219 C 36.292969 15.179688 35.769531 15.5625 33.257812 17.679688 L 31.554688 19.128906 L 31.628906 20.203125 C 31.652344 20.804688 31.652344 21.292969 31.617188 21.292969 C 31.578125 21.292969 31.414062 21.066406 31.257812 20.777344 C 30.734375 19.894531 30.746094 19.894531 29.570312 20.898438 C 28.367188 21.914062 28.261719 22.035156 28.152344 22.550781 C 28.105469 22.753906 27.960938 23.101562 27.820312 23.328125 C 27.675781 23.554688 27.558594 23.769531 27.546875 23.804688 C 27.511719 24.042969 27.082031 24.65625 26.714844 25 L 26.261719 25.421875 L 26.332031 24.953125 C 26.367188 24.703125 26.378906 24.34375 26.332031 24.152344 L 26.273438 23.816406 L 25.238281 24.726562 C 23.546875 26.246094 23.453125 26.339844 23.371094 26.582031 C 23.308594 26.796875 23.296875 26.796875 22.988281 26.558594 C 22.808594 26.414062 22.371094 26.113281 22.011719 25.875 C 21.015625 25.230469 20.027344 24.199219 19.480469 23.230469 C 19.21875 22.753906 18.929688 22.382812 18.859375 22.40625 C 18.800781 22.429688 18.730469 22.667969 18.707031 22.933594 C 18.65625 23.542969 19.0625 24.535156 19.800781 25.648438 C 20.097656 26.101562 20.324219 26.496094 20.300781 26.519531 C 20.242188 26.582031 18.65625 25.828125 18.300781 25.550781 C 18.121094 25.433594 17.753906 25 17.492188 24.617188 C 17.027344 23.972656 16.597656 23.589844 16.457031 23.722656 C 16.347656 23.839844 16.765625 25.050781 17.121094 25.660156 C 17.3125 25.984375 17.847656 26.699219 18.324219 27.25 C 18.800781 27.789062 19.15625 28.265625 19.121094 28.304688 C 18.96875 28.472656 16.824219 27.214844 16.085938 26.519531 C 15.363281 25.839844 15.289062 25.804688 15.253906 26.054688 C 15.195312 26.4375 15.835938 27.753906 16.375 28.351562 C 16.621094 28.625 17.335938 29.222656 17.96875 29.667969 C 18.585938 30.121094 19.335938 30.730469 19.632812 31.042969 C 20.167969 31.605469 20.167969 31.617188 19.8125 31.519531 C 19.621094 31.484375 19.371094 31.378906 19.277344 31.292969 C 18.980469 31.042969 17.707031 30.433594 17.015625 30.207031 C 16.660156 30.085938 16.003906 29.8125 15.5625 29.59375 C 15.125 29.367188 14.707031 29.1875 14.648438 29.1875 C 14.480469 29.1875 14.730469 30.144531 15.050781 30.683594 C 15.550781 31.546875 17.503906 33.257812 18.894531 34.046875 C 19.871094 34.621094 20.703125 35.195312 20.703125 35.300781 C 20.703125 35.457031 19.730469 35.433594 18.382812 35.230469 C 16.835938 34.992188 15.21875 34.871094 14.828125 34.976562 C 14.183594 35.132812 14.613281 35.875 15.660156 36.402344 C 15.980469 36.558594 16.777344 36.867188 17.433594 37.082031 C 18.550781 37.453125 19.230469 37.777344 19.121094 37.886719 C 19.097656 37.910156 18.621094 38.003906 18.0625 38.089844 C 17.074219 38.257812 16.300781 38.542969 16.300781 38.746094 C 16.300781 38.960938 16.8125 39.488281 17.289062 39.761719 C 17.980469 40.171875 18.71875 40.398438 20.585938 40.804688 C 22.371094 41.1875 23.085938 41.378906 23.085938 41.460938 C 23.085938 41.484375 22.691406 41.703125 22.203125 41.917969 C 21.65625 42.167969 21.238281 42.457031 21.109375 42.648438 C 20.894531 42.96875 20.894531 42.980469 21.261719 43.304688 C 21.488281 43.507812 21.835938 43.664062 22.144531 43.710938 C 23.371094 43.902344 23.285156 43.84375 23.226562 44.535156 C 23.15625 45.398438 23.320312 45.542969 24.238281 45.351562 C 24.605469 45.277344 25.082031 45.21875 25.296875 45.21875 C 25.714844 45.21875 25.691406 45.195312 25.890625 46.320312 C 25.929688 46.570312 25.988281 46.773438 26.023438 46.773438 C 26.046875 46.773438 26.320312 46.640625 26.628906 46.472656 C 26.9375 46.308594 27.34375 46.175781 27.546875 46.175781 L 27.902344 46.175781 L 27.867188 46.832031 C 27.84375 47.203125 27.855469 47.636719 27.890625 47.789062 L 27.960938 48.089844 L 28.617188 47.71875 C 28.984375 47.515625 29.34375 47.371094 29.4375 47.40625 C 29.523438 47.445312 29.664062 47.8125 29.746094 48.234375 C 29.949219 49.34375 30.007812 49.394531 30.472656 48.820312 C 30.890625 48.28125 31.496094 47.851562 31.804688 47.851562 C 31.972656 47.851562 31.996094 48.003906 31.984375 48.902344 C 31.984375 49.550781 32.042969 50.097656 32.140625 50.339844 L 32.304688 50.746094 L 32.769531 50.375 C 33.03125 50.160156 33.292969 50.015625 33.363281 50.039062 C 33.4375 50.0625 33.578125 50.386719 33.675781 50.746094 C 33.769531 51.117188 33.886719 51.449219 33.9375 51.5 C 33.984375 51.546875 34.175781 51.476562 34.363281 51.332031 C 34.566406 51.1875 34.769531 51.082031 34.828125 51.082031 C 34.886719 51.082031 35.03125 51.34375 35.160156 51.679688 C 35.410156 52.324219 35.589844 52.40625 35.898438 52.035156 C 36.183594 51.703125 36.257812 51.726562 36.542969 52.300781 C 36.683594 52.585938 36.816406 52.839844 36.839844 52.863281 C 36.851562 52.886719 37.054688 52.789062 37.28125 52.648438 C 37.503906 52.515625 37.742188 52.394531 37.816406 52.394531 C 37.886719 52.394531 38.113281 52.695312 38.328125 53.066406 L 38.707031 53.734375 L 39.160156 53.222656 L 39.601562 52.695312 L 39.863281 53.257812 C 39.992188 53.582031 40.136719 53.832031 40.160156 53.832031 C 40.183594 53.832031 40.457031 53.617188 40.765625 53.339844 C 41.085938 53.066406 41.398438 52.886719 41.492188 52.921875 C 41.585938 52.957031 41.71875 52.992188 41.777344 52.992188 C 41.96875 52.992188 41.898438 53.425781 41.648438 53.746094 C 41.324219 54.15625 40.636719 54.382812 39.277344 54.550781 C 38.671875 54.621094 37.980469 54.753906 37.765625 54.847656 C 37.363281 55.015625 37.363281 55.027344 37.519531 55.398438 C 37.792969 56.082031 38.183594 56.273438 39.480469 56.34375 L 40.636719 56.402344 L 39.921875 56.871094 C 38.503906 57.777344 38.292969 57.945312 38.125 58.269531 C 38.03125 58.460938 37.957031 58.796875 37.957031 59.035156 C 37.957031 59.382812 38.03125 59.5 38.351562 59.691406 C 38.863281 60.015625 39.457031 59.992188 40.410156 59.632812 C 40.847656 59.464844 41.230469 59.359375 41.265625 59.382812 C 41.289062 59.417969 41.015625 59.871094 40.648438 60.398438 C 40.277344 60.925781 39.875 61.582031 39.742188 61.871094 C 39.480469 62.445312 39.433594 63.292969 39.636719 63.84375 C 39.875 64.550781 40.835938 64.441406 42.015625 63.570312 C 42.492188 63.222656 42.621094 63.164062 42.550781 63.339844 C 42.503906 63.472656 42.371094 63.914062 42.265625 64.324219 C 42.085938 65.003906 42.085938 65.101562 42.277344 65.710938 C 42.457031 66.273438 42.539062 66.390625 42.824219 66.453125 C 43.265625 66.546875 43.871094 66.285156 44.3125 65.804688 C 44.515625 65.601562 44.726562 65.433594 44.8125 65.433594 C 44.894531 65.433594 45.050781 65.722656 45.167969 66.058594 C 45.75 67.863281 46.238281 68.140625 47.109375 67.15625 C 47.382812 66.847656 47.597656 66.546875 47.597656 66.5 C 47.597656 66.285156 47.820312 66.402344 47.894531 66.65625 C 48.167969 67.550781 48.476562 68.054688 48.84375 68.234375 C 49.058594 68.34375 49.34375 68.425781 49.476562 68.425781 C 49.90625 68.425781 50.429688 67.851562 50.703125 67.097656 C 50.84375 66.714844 50.976562 66.390625 51 66.390625 C 51.023438 66.390625 51.332031 66.691406 51.675781 67.050781 C 52.046875 67.445312 52.414062 67.707031 52.558594 67.707031 C 52.925781 67.707031 53.273438 67.207031 53.546875 66.261719 C 53.6875 65.804688 53.855469 65.433594 53.949219 65.433594 C 54.035156 65.433594 54.246094 65.601562 54.449219 65.804688 C 54.890625 66.285156 55.496094 66.546875 55.925781 66.453125 C 56.199219 66.390625 56.304688 66.273438 56.449219 65.828125 C 56.699219 65.113281 56.6875 64.898438 56.402344 63.988281 C 56.28125 63.570312 56.1875 63.210938 56.222656 63.1875 C 56.246094 63.164062 56.554688 63.390625 56.925781 63.6875 C 57.914062 64.488281 58.722656 64.5625 59.078125 63.878906 C 59.28125 63.484375 59.316406 62.613281 59.136719 62.144531 C 59.066406 61.964844 58.699219 61.320312 58.304688 60.722656 C 57.914062 60.113281 57.589844 59.550781 57.589844 59.476562 C 57.589844 59.394531 57.890625 59.453125 58.363281 59.632812 C 59.210938 59.957031 59.769531 60.003906 60.292969 59.800781 C 60.722656 59.632812 60.804688 59.5 60.804688 58.867188 C 60.804688 58.234375 60.460938 57.863281 59.160156 57.085938 C 58.699219 56.808594 58.28125 56.523438 58.246094 56.464844 C 58.199219 56.390625 58.53125 56.34375 59.136719 56.34375 C 60.507812 56.34375 61.160156 55.996094 61.304688 55.21875 C 61.351562 54.921875 60.769531 54.714844 59.398438 54.550781 C 57.664062 54.332031 56.878906 53.890625 56.878906 53.148438 C 56.878906 52.863281 56.902344 52.851562 57.328125 52.933594 C 57.589844 52.980469 57.902344 53.148438 58.101562 53.363281 C 58.28125 53.554688 58.484375 53.710938 58.542969 53.710938 C 58.601562 53.710938 58.769531 53.496094 58.898438 53.234375 C 59.03125 52.96875 59.199219 52.753906 59.257812 52.753906 C 59.316406 52.753906 59.507812 52.96875 59.671875 53.234375 C 59.839844 53.496094 59.996094 53.710938 60.019531 53.710938 C 60.042969 53.710938 60.257812 53.414062 60.496094 53.054688 C 60.734375 52.695312 60.96875 52.394531 61.019531 52.394531 C 61.066406 52.394531 61.269531 52.503906 61.457031 52.636719 C 61.660156 52.765625 61.851562 52.875 61.886719 52.875 C 61.933594 52.875 62.078125 52.597656 62.230469 52.265625 L 62.492188 51.640625 L 62.78125 51.964844 C 62.945312 52.132812 63.136719 52.277344 63.21875 52.277344 C 63.304688 52.277344 63.46875 52 63.589844 51.679688 C 63.816406 51.03125 64.015625 50.9375 64.339844 51.308594 C 64.613281 51.640625 64.921875 51.4375 65.027344 50.875 C 65.207031 49.917969 65.445312 49.800781 65.980469 50.363281 C 66.171875 50.566406 66.382812 50.722656 66.46875 50.722656 C 66.648438 50.722656 66.753906 50.050781 66.753906 48.832031 C 66.753906 48.089844 66.789062 47.851562 66.921875 47.851562 C 67.144531 47.851562 67.800781 48.316406 68.347656 48.878906 L 68.8125 49.34375 L 68.90625 49.046875 C 68.953125 48.878906 69.0625 48.4375 69.132812 48.054688 C 69.289062 47.265625 69.492188 47.179688 70.0625 47.671875 C 70.265625 47.839844 70.515625 47.96875 70.644531 47.96875 C 70.847656 47.96875 70.871094 47.875 70.859375 47.109375 C 70.859375 46.234375 70.859375 46.234375 71.191406 46.199219 C 71.394531 46.175781 71.773438 46.296875 72.132812 46.472656 C 72.453125 46.640625 72.75 46.761719 72.785156 46.726562 C 72.820312 46.691406 72.917969 46.320312 72.988281 45.914062 L 73.121094 45.160156 L 73.953125 45.207031 C 75.617188 45.3125 75.488281 45.363281 75.558594 44.679688 C 75.640625 43.925781 75.726562 43.78125 76.128906 43.78125 C 77.046875 43.78125 77.960938 43.183594 77.722656 42.742188 C 77.523438 42.371094 77.199219 42.15625 76.425781 41.867188 C 76.011719 41.726562 75.679688 41.558594 75.679688 41.511719 C 75.679688 41.355469 76.664062 41.054688 78.472656 40.671875 C 79.449219 40.457031 80.542969 40.183594 80.914062 40.050781 C 81.542969 39.8125 82.460938 39.058594 82.460938 38.769531 C 82.460938 38.53125 81.496094 38.183594 80.605469 38.101562 C 79.082031 37.957031 79.152344 37.835938 81.175781 37.132812 C 83.210938 36.425781 84.316406 35.707031 84.222656 35.183594 C 84.148438 34.835938 82.710938 34.761719 81.328125 35.050781 C 79.972656 35.324219 78.058594 35.492188 78.058594 35.335938 C 78.058594 35.183594 78.984375 34.523438 80.542969 33.554688 C 82.089844 32.585938 83.164062 31.664062 83.601562 30.910156 C 83.925781 30.359375 84.292969 29.308594 84.199219 29.210938 C 84.113281 29.128906 80.734375 30.601562 79.972656 31.042969 C 79.605469 31.269531 79.152344 31.484375 78.960938 31.535156 C 78.664062 31.605469 78.640625 31.59375 78.746094 31.390625 C 78.960938 30.996094 79.628906 30.421875 80.855469 29.582031 C 82.199219 28.648438 82.914062 27.847656 83.28125 26.84375 C 83.699219 25.753906 83.578125 25.683594 82.699219 26.496094 C 81.984375 27.167969 79.675781 28.578125 79.53125 28.433594 C 79.496094 28.398438 79.890625 27.910156 80.402344 27.335938 C 81.902344 25.660156 82.484375 24.488281 82.128906 23.851562 C 82.019531 23.675781 81.972656 23.699219 81.675781 24.152344 C 80.878906 25.324219 80.582031 25.671875 80.140625 25.921875 C 79.878906 26.078125 79.640625 26.1875 79.605469 26.1875 C 79.570312 26.1875 79.425781 26.03125 79.269531 25.839844 L 78.996094 25.492188 L 79.484375 24.59375 C 79.78125 24.042969 79.996094 23.484375 80.042969 23.113281 C 80.128906 22.382812 79.925781 22.191406 79.628906 22.742188 C 79.296875 23.363281 78.425781 24.523438 78.296875 24.523438 C 78.1875 24.523438 76.570312 22.429688 76.296875 21.925781 C 76.226562 21.796875 76.09375 21.761719 75.902344 21.808594 C 75.628906 21.878906 73.070312 23.496094 72.941406 23.675781 C 72.90625 23.722656 72.796875 23.792969 72.703125 23.828125 C 72.609375 23.878906 71.667969 24.523438 70.621094 25.289062 C 68.765625 26.640625 68.71875 26.664062 68.15625 26.617188 C 67.835938 26.605469 67.503906 26.519531 67.40625 26.4375 C 67.3125 26.367188 67.195312 26.328125 67.121094 26.367188 C 67.0625 26.402344 66.992188 26.367188 66.957031 26.28125 C 66.894531 26.101562 63.777344 24.464844 63.777344 24.605469 C 63.777344 24.65625 63.730469 24.644531 63.683594 24.570312 C 63.636719 24.5 63.015625 24.152344 62.292969 23.816406 C 61.578125 23.46875 60.875 23.101562 60.757812 22.992188 C 60.625 22.882812 60.007812 22.167969 59.375 21.402344 C 56.914062 18.433594 56.367188 17.835938 56.246094 17.90625 C 56.175781 17.945312 56.164062 17.917969 56.210938 17.835938 C 56.269531 17.753906 56.140625 17.535156 55.878906 17.285156 C 55.640625 17.070312 55.449219 16.855469 55.449219 16.820312 C 55.449219 16.710938 51.273438 11.722656 51.191406 11.722656 C 51.140625 11.722656 50.914062 11.84375 50.691406 11.988281 Z M 51.628906 13.230469 C 51.976562 13.542969 52.5 14.140625 52.808594 14.582031 C 53.117188 15.011719 53.402344 15.382812 53.449219 15.40625 C 53.511719 15.433594 53.546875 15.503906 53.546875 15.5625 C 53.546875 15.636719 53.832031 16.066406 54.1875 16.542969 C 56.164062 19.210938 57.210938 20.550781 57.28125 20.503906 C 57.316406 20.480469 57.328125 20.492188 57.292969 20.527344 C 57.222656 20.636719 58.554688 22.347656 59.53125 23.398438 C 60.066406 23.984375 60.722656 24.511719 61.507812 24.988281 C 62.792969 25.792969 64.753906 26.820312 64.835938 26.722656 C 64.863281 26.699219 64.765625 26.542969 64.625 26.390625 C 64.46875 26.234375 64.375 26.019531 64.398438 25.910156 C 64.421875 25.765625 64.742188 25.863281 66.015625 26.425781 C 66.871094 26.808594 67.621094 27.144531 67.65625 27.191406 C 67.753906 27.285156 67.21875 28.195312 66.789062 28.648438 C 66.609375 28.839844 66.46875 29.046875 66.480469 29.09375 C 66.503906 29.140625 66.433594 29.152344 66.347656 29.117188 C 66.242188 29.082031 65.753906 29.476562 65.101562 30.109375 C 63.730469 31.460938 63.671875 31.738281 64.910156 30.945312 C 67.300781 29.429688 69.667969 27.753906 69.632812 27.621094 C 69.621094 27.550781 69.65625 27.527344 69.714844 27.5625 C 69.835938 27.632812 71.5 26.628906 71.65625 26.390625 C 71.703125 26.316406 71.75 26.304688 71.75 26.351562 C 71.75 26.402344 71.871094 26.390625 72 26.304688 C 72.203125 26.210938 72.273438 26.210938 72.359375 26.328125 C 72.40625 26.414062 72.417969 26.53125 72.394531 26.582031 C 72.308594 26.710938 71.976562 29.09375 72.023438 29.140625 C 72.074219 29.199219 73.820312 26.832031 74.65625 25.5625 C 75.652344 24.082031 75.605469 24.105469 76.285156 24.882812 C 76.605469 25.242188 76.867188 25.601562 76.867188 25.671875 C 76.867188 25.730469 76.570312 26.054688 76.203125 26.378906 C 75.832031 26.6875 75.238281 27.359375 74.878906 27.859375 C 73.964844 29.117188 73.609375 29.488281 72.644531 30.144531 C 71.738281 30.78125 71.144531 31.367188 69.917969 32.859375 C 68.609375 34.476562 67.527344 35.324219 66.46875 35.601562 C 66.207031 35.660156 66.160156 35.636719 66.160156 35.433594 C 66.160156 35.289062 66.300781 34.917969 66.46875 34.609375 L 66.765625 34.035156 L 66.433594 33.960938 C 66.253906 33.914062 65.875 33.878906 65.597656 33.867188 C 65.136719 33.855469 65.085938 33.816406 65.085938 33.566406 C 65.085938 33.398438 65.195312 33.078125 65.335938 32.847656 C 65.5625 32.464844 65.5625 32.417969 65.386719 32.417969 C 65.277344 32.417969 64.898438 32.5625 64.550781 32.730469 C 63.46875 33.242188 63.21875 33.613281 61.542969 37.203125 C 61.207031 37.933594 60.066406 39.117188 59.375 39.476562 C 59.125 39.597656 58.4375 39.789062 57.816406 39.894531 C 57.199219 40.003906 56.402344 40.195312 56.042969 40.3125 C 55.6875 40.433594 55.070312 40.613281 54.675781 40.707031 C 54.285156 40.816406 53.734375 40.960938 53.460938 41.042969 C 52.988281 41.1875 52.9375 41.1875 52.640625 40.898438 C 52.476562 40.746094 52.011719 40.132812 51.617188 39.558594 C 51.226562 38.984375 50.761719 38.410156 50.59375 38.28125 C 49.90625 37.730469 48.859375 37.730469 48.144531 38.292969 C 47.964844 38.4375 47.546875 38.949219 47.214844 39.464844 C 46.394531 40.707031 45.953125 41.152344 45.5625 41.152344 C 45.382812 41.152344 44.527344 40.910156 43.644531 40.625 C 42.765625 40.351562 41.671875 40.039062 41.21875 39.953125 C 40.015625 39.738281 38.96875 39.203125 38.195312 38.398438 C 37.671875 37.875 37.316406 37.300781 36.542969 35.78125 C 35.269531 33.257812 34.769531 32.695312 33.652344 32.492188 C 33.140625 32.394531 33.101562 32.453125 33.4375 32.957031 C 33.566406 33.148438 33.675781 33.433594 33.675781 33.578125 C 33.675781 33.78125 33.578125 33.84375 33.175781 33.914062 C 31.855469 34.105469 31.828125 34.128906 32.304688 34.570312 C 32.507812 34.761719 32.601562 34.976562 32.601562 35.253906 C 32.601562 35.625 32.578125 35.648438 32.28125 35.578125 C 31.292969 35.335938 30.246094 34.511719 28.914062 32.945312 C 27.464844 31.210938 26.914062 30.660156 26.140625 30.179688 C 25.773438 29.929688 25.464844 29.691406 25.464844 29.644531 C 25.464844 29.511719 27.773438 27.273438 28.472656 26.722656 C 28.9375 26.367188 29.070312 26.304688 29.152344 26.4375 C 29.210938 26.53125 29.210938 26.664062 29.164062 26.734375 C 29.070312 26.855469 28.675781 28.113281 28.675781 28.304688 C 28.675781 28.351562 28.914062 28.074219 29.210938 27.679688 C 29.507812 27.296875 29.84375 26.867188 29.960938 26.722656 C 30.070312 26.59375 30.59375 25.921875 31.117188 25.242188 C 31.640625 24.570312 32.589844 23.351562 33.234375 22.539062 C 33.863281 21.722656 34.386719 21.03125 34.386719 20.996094 C 34.386719 20.898438 33.519531 21.425781 33.414062 21.582031 C 33.363281 21.652344 33.316406 21.664062 33.316406 21.617188 C 33.316406 21.554688 32.925781 21.734375 32.4375 22 C 31.960938 22.273438 31.53125 22.488281 31.484375 22.488281 C 31.222656 22.488281 31.566406 21.878906 32.554688 20.574219 C 33.1875 19.75 34.210938 18.398438 34.839844 17.5625 C 35.484375 16.722656 36.054688 16.03125 36.113281 16.03125 C 36.246094 16.03125 39.660156 19.414062 39.71875 19.605469 C 39.753906 19.726562 38.804688 21.03125 38.207031 21.6875 L 37.898438 22.023438 L 38.613281 21.699219 C 39.003906 21.519531 39.730469 21.136719 40.21875 20.839844 C 41.148438 20.289062 42.183594 19.738281 42.300781 19.738281 C 42.527344 19.738281 42.242188 20.15625 41.527344 20.875 C 41.074219 21.316406 40.730469 21.734375 40.765625 21.796875 C 40.800781 21.84375 40.765625 21.890625 40.707031 21.890625 C 40.515625 21.890625 38.839844 23.699219 38.886719 23.851562 C 38.910156 23.925781 38.898438 23.949219 38.851562 23.914062 C 38.816406 23.867188 38.515625 24.117188 38.183594 24.464844 L 37.601562 25.085938 L 37.601562 26.6875 C 37.613281 28.160156 37.625 28.265625 37.78125 27.96875 C 37.875 27.800781 38.089844 27.226562 38.253906 26.699219 C 38.554688 25.742188 38.742188 25.46875 39.625 24.703125 C 41.171875 23.351562 42.65625 21.953125 42.621094 21.867188 C 42.609375 21.808594 42.632812 21.785156 42.683594 21.808594 C 42.742188 21.84375 43.527344 21.210938 44.441406 20.394531 C 45.359375 19.582031 46.144531 18.949219 46.191406 18.996094 C 46.226562 19.042969 46.464844 19.703125 46.703125 20.457031 C 46.953125 21.210938 47.179688 21.878906 47.214844 21.953125 C 47.261719 22.011719 47.296875 22.128906 47.3125 22.214844 C 47.359375 22.527344 47.859375 23.925781 47.917969 23.925781 C 47.953125 23.925781 47.953125 23.566406 47.917969 23.113281 C 47.738281 21.019531 47.691406 20.636719 47.632812 20.539062 C 47.609375 20.492188 47.546875 20.085938 47.511719 19.640625 C 47.488281 19.199219 47.441406 18.769531 47.40625 18.683594 C 47.382812 18.601562 47.417969 18.566406 47.488281 18.601562 C 47.558594 18.648438 47.597656 18.613281 47.585938 18.53125 C 47.511719 18.183594 48.144531 17.25 48.988281 16.4375 C 49.582031 15.875 49.832031 15.550781 49.738281 15.492188 C 49.667969 15.445312 49.535156 15.46875 49.476562 15.527344 C 49.355469 15.648438 49.035156 15.5625 48.796875 15.359375 C 48.773438 15.335938 49.121094 14.929688 49.558594 14.449219 C 49.988281 13.972656 50.453125 13.375 50.582031 13.121094 C 50.714844 12.882812 50.855469 12.679688 50.914062 12.679688 C 50.976562 12.679688 51.296875 12.929688 51.628906 13.230469 Z M 24.820312 28.804688 C 24.773438 28.839844 24.679688 28.804688 24.59375 28.722656 C 24.488281 28.613281 24.488281 28.554688 24.632812 28.472656 C 24.761719 28.386719 24.820312 28.410156 24.84375 28.542969 C 24.867188 28.648438 24.855469 28.757812 24.820312 28.804688 Z M 26.402344 37.359375 C 26.414062 37.417969 26.320312 37.429688 26.214844 37.394531 C 25.953125 37.324219 24.867188 38.652344 24.867188 39.035156 C 24.867188 39.417969 25.332031 39.835938 25.761719 39.835938 C 26.082031 39.835938 26.214844 39.726562 26.691406 39.070312 C 27.082031 38.53125 27.226562 38.246094 27.164062 38.089844 C 27.105469 37.910156 27.152344 37.921875 27.5 38.171875 C 27.855469 38.421875 27.878906 38.460938 27.652344 38.496094 C 27.511719 38.519531 27.175781 38.84375 26.855469 39.285156 C 26.238281 40.132812 25.890625 40.300781 25.355469 40.027344 C 24.929688 39.800781 24.394531 39.164062 24.394531 38.878906 C 24.394531 38.757812 24.691406 38.292969 25.046875 37.835938 C 25.523438 37.25 25.679688 36.964844 25.617188 36.785156 C 25.558594 36.59375 25.617188 36.617188 25.976562 36.90625 C 26.214844 37.109375 26.402344 37.3125 26.402344 37.359375 Z M 72.941406 37.527344 C 72.941406 37.65625 72.882812 37.644531 72.667969 37.503906 C 72.40625 37.335938 72.359375 37.335938 72.074219 37.609375 C 71.703125 37.957031 71.679688 38.078125 71.941406 38.28125 C 72.085938 38.410156 72.261719 38.410156 72.894531 38.292969 C 73.59375 38.148438 73.691406 38.148438 73.894531 38.339844 C 74.355469 38.769531 74.132812 39.476562 73.371094 39.941406 C 72.859375 40.265625 72.773438 40.253906 72.609375 39.894531 C 72.40625 39.453125 72.429688 39.429688 72.773438 39.65625 C 73.070312 39.847656 73.109375 39.847656 73.40625 39.621094 C 73.621094 39.464844 73.714844 39.273438 73.714844 39.046875 C 73.714844 38.734375 73.679688 38.699219 73.359375 38.710938 C 73.167969 38.722656 72.75 38.769531 72.453125 38.820312 C 72.023438 38.890625 71.871094 38.867188 71.714844 38.699219 C 71.40625 38.398438 71.464844 37.898438 71.847656 37.539062 C 72.382812 37.035156 72.621094 36.941406 72.796875 37.167969 C 72.871094 37.273438 72.941406 37.441406 72.941406 37.527344 Z M 71.132812 39.09375 C 71.417969 39.464844 71.300781 39.96875 70.8125 40.433594 L 70.359375 40.875 L 70.585938 41.199219 C 70.75 41.425781 70.894531 41.5 71.050781 41.449219 C 71.40625 41.332031 71.324219 41.449219 70.800781 41.796875 C 70.289062 42.132812 70.109375 42.191406 70.300781 41.953125 C 70.488281 41.726562 69.265625 39.8125 68.992188 39.882812 C 68.621094 39.96875 68.765625 39.789062 69.347656 39.394531 C 70.3125 38.734375 70.789062 38.652344 71.132812 39.09375 Z M 29.390625 39.558594 C 29.390625 39.621094 29.308594 40.242188 29.1875 40.960938 C 29.046875 41.964844 29.023438 42.3125 29.128906 42.480469 C 29.320312 42.777344 29.234375 42.765625 28.675781 42.40625 C 28.164062 42.085938 28.082031 41.953125 28.414062 42.011719 C 28.570312 42.035156 28.628906 41.953125 28.652344 41.664062 C 28.6875 41.34375 28.628906 41.246094 28.25 40.984375 C 27.820312 40.695312 27.796875 40.695312 27.476562 40.875 C 27.214844 41.03125 27.164062 41.117188 27.273438 41.234375 C 27.5 41.511719 27.308594 41.511719 26.914062 41.234375 C 26.523438 40.960938 26.402344 40.746094 26.703125 40.863281 C 26.796875 40.898438 27.402344 40.601562 28.046875 40.207031 C 29.222656 39.488281 29.390625 39.40625 29.390625 39.558594 Z M 68.207031 40.351562 C 68.015625 40.578125 69.203125 42.46875 69.539062 42.46875 C 69.726562 42.46875 69.679688 42.539062 69.3125 42.765625 C 68.777344 43.089844 68.5625 43.148438 68.765625 42.898438 C 68.953125 42.671875 67.789062 40.648438 67.527344 40.757812 C 67.21875 40.863281 67.335938 40.707031 67.742188 40.445312 C 68.167969 40.171875 68.394531 40.121094 68.207031 40.351562 Z M 31.84375 41.042969 C 32.675781 41.5 32.710938 41.546875 32.578125 41.785156 C 32.4375 42.035156 32.425781 42.035156 32.390625 41.808594 C 32.367188 41.59375 31.78125 41.152344 31.519531 41.152344 C 31.414062 41.152344 31.054688 41.773438 31.054688 41.964844 C 31.054688 42.121094 31.628906 42.347656 31.828125 42.277344 C 32.078125 42.179688 32.054688 42.382812 31.769531 42.71875 C 31.542969 42.992188 31.542969 42.992188 31.53125 42.753906 C 31.53125 42.609375 31.414062 42.457031 31.234375 42.371094 C 30.820312 42.179688 30.855469 42.167969 30.582031 42.707031 L 30.34375 43.183594 L 30.832031 43.4375 C 31.1875 43.617188 31.355469 43.652344 31.449219 43.554688 C 31.734375 43.269531 31.890625 43.53125 31.664062 43.890625 C 31.578125 44.023438 31.378906 43.960938 30.628906 43.554688 C 29.617188 43.003906 29.285156 42.753906 29.699219 42.851562 C 29.902344 42.898438 30.03125 42.742188 30.507812 41.917969 C 30.984375 41.089844 31.054688 40.875 30.9375 40.734375 C 30.699219 40.445312 30.902344 40.515625 31.84375 41.042969 Z M 66.765625 41.640625 C 66.945312 41.820312 66.992188 41.976562 66.945312 42.203125 C 66.894531 42.382812 66.847656 42.597656 66.835938 42.695312 C 66.824219 42.8125 67.074219 42.957031 67.5625 43.125 L 68.3125 43.386719 L 67.945312 43.542969 C 67.621094 43.675781 67.515625 43.652344 66.933594 43.351562 C 66.121094 42.945312 65.886719 43.066406 66.195312 43.710938 C 66.335938 44.035156 66.433594 44.105469 66.621094 44.058594 C 67.027344 43.949219 66.910156 44.117188 66.398438 44.382812 C 65.824219 44.679688 65.585938 44.691406 65.800781 44.441406 C 65.933594 44.285156 65.875 44.082031 65.492188 43.246094 C 65.171875 42.550781 64.957031 42.226562 64.789062 42.203125 C 64.613281 42.167969 64.742188 42.058594 65.265625 41.785156 C 66.109375 41.332031 66.433594 41.308594 66.765625 41.640625 Z M 64.363281 42.660156 C 64.539062 43.066406 64.445312 43.160156 64.136719 42.886719 C 63.945312 42.707031 63.839844 42.695312 63.613281 42.800781 L 63.316406 42.933594 L 63.753906 44.011719 C 64.148438 44.96875 64.230469 45.097656 64.492188 45.097656 C 64.742188 45.097656 64.707031 45.148438 64.265625 45.339844 C 63.660156 45.625 63.457031 45.648438 63.648438 45.410156 C 63.753906 45.277344 63.695312 45.003906 63.363281 44.164062 C 62.933594 43.101562 62.921875 43.078125 62.636719 43.207031 C 62.445312 43.292969 62.304688 43.484375 62.269531 43.699219 L 62.195312 44.058594 L 62.03125 43.722656 C 61.933594 43.542969 61.898438 43.351562 61.957031 43.304688 C 62.042969 43.207031 63.96875 42.382812 64.148438 42.359375 C 64.183594 42.347656 64.277344 42.492188 64.363281 42.660156 Z M 36.054688 45.875 C 36.21875 46.078125 36.207031 46.078125 35.945312 45.996094 C 35.363281 45.816406 34.921875 45.589844 35.136719 45.578125 C 35.292969 45.578125 35.339844 45.480469 35.339844 45.183594 C 35.339844 44.824219 35.28125 44.75 34.863281 44.558594 C 34.386719 44.34375 34.386719 44.34375 34.089844 44.621094 C 33.816406 44.882812 33.816406 44.90625 34.007812 45.050781 C 34.328125 45.300781 33.9375 45.253906 33.4375 44.980469 C 33.054688 44.765625 33.042969 44.75 33.304688 44.738281 C 33.507812 44.738281 33.925781 44.429688 34.613281 43.746094 L 35.636719 42.765625 L 35.757812 44.214844 C 35.839844 45.171875 35.933594 45.734375 36.054688 45.875 Z M 38.515625 43.925781 C 39.386719 44.25 39.660156 44.632812 39.589844 45.386719 C 39.515625 46.1875 39.027344 46.652344 38.265625 46.652344 C 37.660156 46.652344 36.183594 46.140625 36.613281 46.078125 C 36.828125 46.042969 36.933594 45.839844 37.230469 44.941406 C 37.445312 44.296875 37.554688 43.832031 37.480469 43.808594 C 37.421875 43.78125 37.363281 43.710938 37.363281 43.640625 C 37.363281 43.519531 37.542969 43.566406 38.515625 43.925781 Z M 60.183594 44.25 C 60.222656 44.476562 60.195312 44.5 60.007812 44.382812 C 59.863281 44.285156 59.648438 44.273438 59.398438 44.34375 C 58.960938 44.453125 58.972656 44.429688 59.078125 45.015625 C 59.160156 45.433594 59.199219 45.46875 59.484375 45.398438 C 59.648438 45.363281 59.863281 45.242188 59.933594 45.132812 C 60.113281 44.894531 60.160156 44.929688 60.269531 45.375 C 60.351562 45.683594 60.183594 45.828125 60.03125 45.589844 C 59.996094 45.515625 59.839844 45.515625 59.625 45.589844 C 59.304688 45.707031 59.292969 45.722656 59.410156 46.246094 C 59.507812 46.640625 59.578125 46.761719 59.722656 46.726562 C 59.828125 46.691406 60.054688 46.628906 60.246094 46.582031 C 60.460938 46.535156 60.589844 46.402344 60.636719 46.210938 C 60.722656 45.898438 60.875 45.972656 60.945312 46.34375 C 60.96875 46.523438 60.816406 46.605469 60.03125 46.84375 C 58.925781 47.167969 58.625 47.203125 58.9375 46.976562 C 59.125 46.84375 59.125 46.785156 58.972656 46.234375 C 58.875 45.898438 58.734375 45.410156 58.664062 45.121094 C 58.589844 44.824219 58.460938 44.621094 58.363281 44.621094 C 57.9375 44.621094 58.257812 44.417969 59.054688 44.191406 C 60.066406 43.890625 60.136719 43.890625 60.183594 44.25 Z M 41.050781 44.632812 C 41.242188 44.691406 41.277344 44.726562 41.148438 44.726562 C 41.027344 44.738281 40.933594 44.8125 40.933594 44.882812 C 40.933594 45.242188 41.21875 46.894531 41.277344 46.894531 C 41.324219 46.894531 41.585938 46.511719 41.871094 46.054688 C 42.3125 45.324219 42.359375 45.183594 42.230469 45.015625 C 42.074219 44.835938 42.097656 44.824219 42.359375 44.894531 C 42.527344 44.941406 42.753906 44.980469 42.882812 44.980469 C 43.0625 44.980469 43.050781 45.027344 42.753906 45.300781 C 42.5625 45.492188 42.160156 46.054688 41.847656 46.558594 C 41.527344 47.074219 41.207031 47.492188 41.109375 47.492188 C 40.957031 47.492188 40.847656 47.132812 40.574219 45.578125 C 40.503906 45.148438 40.351562 44.703125 40.242188 44.585938 C 40.050781 44.367188 40.0625 44.367188 40.398438 44.453125 C 40.597656 44.5 40.886719 44.585938 41.050781 44.632812 Z M 57.390625 45.121094 C 57.652344 45.445312 57.652344 45.683594 57.339844 46.007812 L 57.101562 46.257812 L 57.601562 46.703125 C 57.890625 46.941406 58.1875 47.132812 58.269531 47.132812 C 58.363281 47.132812 58.402344 47.179688 58.363281 47.253906 C 58.199219 47.515625 57.6875 47.359375 57.175781 46.882812 C 56.675781 46.414062 56.222656 46.308594 56.328125 46.679688 C 56.367188 46.761719 56.414062 46.976562 56.449219 47.15625 C 56.496094 47.359375 56.605469 47.492188 56.734375 47.492188 C 57.078125 47.503906 56.652344 47.683594 56.105469 47.765625 C 55.6875 47.828125 55.652344 47.8125 55.84375 47.683594 C 56.042969 47.527344 56.042969 47.46875 55.84375 46.367188 C 55.699219 45.515625 55.59375 45.21875 55.472656 45.21875 C 55.117188 45.21875 55.472656 45.039062 56.082031 44.90625 C 56.804688 44.738281 57.101562 44.800781 57.390625 45.121094 Z M 44.441406 45.230469 C 45.265625 45.363281 45.335938 45.386719 45.335938 45.648438 C 45.335938 45.804688 45.289062 45.9375 45.214844 45.9375 C 45.15625 45.9375 45.097656 45.863281 45.097656 45.769531 C 45.097656 45.566406 44.835938 45.457031 44.371094 45.457031 C 44.050781 45.457031 44.027344 45.492188 44.027344 45.875 C 44.027344 46.105469 44.027344 46.332031 44.027344 46.378906 C 44.015625 46.535156 44.632812 46.558594 44.8125 46.402344 C 44.941406 46.296875 44.976562 46.308594 44.976562 46.511719 C 44.976562 46.640625 44.941406 46.84375 44.90625 46.941406 C 44.835938 47.121094 44.8125 47.121094 44.691406 46.964844 C 44.621094 46.871094 44.417969 46.75 44.242188 46.714844 C 43.953125 46.640625 43.917969 46.664062 43.847656 47.0625 C 43.800781 47.300781 43.789062 47.574219 43.835938 47.671875 C 43.929688 47.921875 44.835938 47.921875 44.929688 47.671875 C 45.050781 47.382812 45.214844 47.46875 45.214844 47.800781 L 45.214844 48.125 L 44.324219 48.042969 C 43.457031 47.957031 42.621094 47.753906 43.109375 47.742188 C 43.21875 47.730469 43.3125 47.695312 43.3125 47.636719 C 43.3125 47.585938 43.394531 47.0625 43.492188 46.472656 C 43.65625 45.480469 43.65625 45.386719 43.46875 45.242188 C 43.21875 45.0625 43.300781 45.0625 44.441406 45.230469 Z M 54.757812 45.363281 C 54.675781 45.46875 54.675781 45.816406 54.769531 46.5 C 54.890625 47.46875 54.890625 47.503906 54.617188 47.789062 C 54.390625 48.042969 54.222656 48.089844 53.710938 48.089844 C 52.796875 48.089844 52.726562 47.980469 52.535156 46.355469 C 52.5 46.019531 52.390625 45.695312 52.296875 45.625 C 52.152344 45.515625 52.214844 45.480469 52.617188 45.421875 C 53.164062 45.351562 53.34375 45.410156 53.082031 45.566406 C 52.949219 45.648438 52.9375 45.863281 53 46.546875 C 53.046875 47.023438 53.140625 47.515625 53.199219 47.636719 C 53.367188 47.945312 54.152344 47.921875 54.4375 47.609375 C 54.628906 47.40625 54.628906 47.289062 54.507812 46.449219 C 54.414062 45.804688 54.308594 45.480469 54.164062 45.398438 C 53.996094 45.300781 54.035156 45.265625 54.378906 45.21875 C 54.867188 45.132812 54.925781 45.160156 54.757812 45.363281 Z M 47.5 46.617188 L 48.25 47.789062 L 48.285156 46.832031 C 48.308594 46.042969 48.285156 45.851562 48.121094 45.734375 C 47.941406 45.601562 47.976562 45.578125 48.441406 45.578125 C 48.90625 45.589844 48.941406 45.601562 48.761719 45.746094 C 48.582031 45.875 48.546875 46.105469 48.546875 47.179688 C 48.546875 48.113281 48.511719 48.449219 48.394531 48.449219 C 48.320312 48.449219 47.871094 47.886719 47.417969 47.191406 L 46.585938 45.9375 L 46.5 46.929688 C 46.441406 47.753906 46.453125 47.933594 46.621094 48.054688 C 46.882812 48.269531 46.761719 48.328125 46.25 48.246094 C 45.894531 48.183594 45.847656 48.148438 45.988281 48.042969 C 46.109375 47.957031 46.191406 47.5625 46.261719 46.820312 C 46.335938 45.898438 46.324219 45.695312 46.167969 45.601562 C 46.027344 45.492188 46.074219 45.46875 46.371094 45.46875 C 46.726562 45.457031 46.8125 45.542969 47.5 46.617188 Z M 51.855469 45.734375 C 51.878906 45.851562 51.867188 46.042969 51.820312 46.152344 C 51.761719 46.320312 51.714844 46.308594 51.570312 46.019531 C 51.453125 45.804688 51.296875 45.695312 51.105469 45.695312 C 50.808594 45.695312 50.808594 45.707031 50.808594 46.773438 C 50.808594 47.695312 50.84375 47.886719 51.046875 48.089844 L 51.285156 48.328125 L 50.605469 48.316406 C 50.070312 48.316406 49.976562 48.292969 50.191406 48.210938 C 50.476562 48.089844 50.523438 47.683594 50.378906 46.4375 C 50.308594 45.851562 50.273438 45.816406 49.976562 45.816406 C 49.738281 45.816406 49.632812 45.886719 49.582031 46.078125 C 49.5 46.390625 49.441406 46.355469 49.332031 45.914062 L 49.261719 45.589844 L 50.355469 45.542969 C 51.832031 45.492188 51.808594 45.492188 51.855469 45.734375 Z M 51.855469 45.734375 "/>
<path style=" stroke:none;fill-rule:nonzero;fill:rgb(0%,0%,0%);fill-opacity:1;" d="M 53.425781 19.570312 C 53.84375 20.347656 54.234375 21.113281 54.308594 21.257812 C 54.378906 21.414062 54.472656 21.53125 54.535156 21.53125 C 54.582031 21.53125 54.617188 21.617188 54.617188 21.699219 C 54.617188 21.796875 54.746094 22.117188 54.902344 22.417969 C 55.058594 22.71875 55.28125 23.242188 55.402344 23.589844 L 55.605469 24.210938 L 55.140625 24.570312 C 54.460938 25.109375 53.785156 25.792969 53.785156 25.945312 C 53.785156 26.03125 54.234375 26.078125 55.210938 26.078125 C 56.507812 26.078125 56.640625 26.101562 56.640625 26.292969 C 56.640625 26.414062 56.578125 26.570312 56.496094 26.652344 C 56.414062 26.734375 56.402344 26.796875 56.460938 26.796875 C 56.507812 26.796875 56.460938 26.902344 56.34375 27.035156 C 56.222656 27.167969 56.175781 27.273438 56.234375 27.273438 C 56.292969 27.273438 56.28125 27.324219 56.210938 27.371094 C 56.09375 27.441406 54.960938 29.238281 54.628906 29.894531 L 54.472656 30.167969 L 54.984375 29.871094 C 55.257812 29.703125 55.640625 29.429688 55.820312 29.273438 C 56.007812 29.105469 56.175781 28.996094 56.199219 29.019531 C 56.222656 29.046875 56.4375 28.890625 56.675781 28.664062 C 56.914062 28.445312 57.128906 28.28125 57.152344 28.304688 C 57.175781 28.339844 57.328125 28.230469 57.484375 28.089844 C 57.652344 27.933594 58.078125 27.609375 58.449219 27.347656 L 59.125 26.878906 L 58.566406 26.089844 C 58.257812 25.660156 57.328125 24.355469 56.484375 23.207031 C 55.652344 22.058594 54.519531 20.480469 53.960938 19.714844 C 53.402344 18.949219 52.890625 18.277344 52.808594 18.230469 C 52.738281 18.183594 53.011719 18.78125 53.425781 19.570312 Z M 53.425781 19.570312 "/>
<path style=" stroke:none;fill-rule:nonzero;fill:rgb(0%,0%,0%);fill-opacity:1;" d="M 43.144531 23.113281 C 42.242188 23.734375 41.027344 24.941406 40.753906 25.480469 C 40.527344 25.921875 40.085938 27.273438 40.171875 27.273438 C 40.3125 27.273438 41.027344 26.378906 40.96875 26.28125 C 40.933594 26.210938 40.957031 26.199219 41.015625 26.234375 C 41.085938 26.28125 41.230469 26.1875 41.324219 26.03125 C 41.433594 25.875 41.585938 25.671875 41.683594 25.589844 C 42.171875 25.085938 44.027344 22.585938 43.882812 22.621094 C 43.859375 22.621094 43.527344 22.835938 43.144531 23.113281 Z M 43.144531 23.113281 "/>
<path style=" stroke:none;fill-rule:nonzero;fill:rgb(0%,0%,0%);fill-opacity:1;" d="M 69.859375 39.296875 C 69.476562 39.464844 69.464844 39.488281 69.632812 39.75 C 69.726562 39.894531 69.882812 40.132812 69.976562 40.277344 C 70.191406 40.636719 70.371094 40.625 70.667969 40.242188 C 70.976562 39.847656 70.976562 39.65625 70.679688 39.355469 C 70.394531 39.070312 70.382812 39.070312 69.859375 39.296875 Z M 69.859375 39.296875 "/>
<path style=" stroke:none;fill-rule:nonzero;fill:rgb(0%,0%,0%);fill-opacity:1;" d="M 28.617188 40.144531 C 28.484375 40.242188 28.296875 40.386719 28.199219 40.445312 C 28.046875 40.527344 28.070312 40.589844 28.320312 40.792969 C 28.484375 40.925781 28.652344 41.03125 28.6875 41.03125 C 28.722656 41.03125 28.808594 40.792969 28.878906 40.492188 C 29.011719 39.90625 28.972656 39.871094 28.617188 40.144531 Z M 28.617188 40.144531 "/>
<path style=" stroke:none;fill-rule:nonzero;fill:rgb(0%,0%,0%);fill-opacity:1;" d="M 65.574219 41.855469 C 65.421875 41.953125 65.433594 42.035156 65.625 42.457031 C 65.847656 42.980469 65.921875 43.015625 66.289062 42.824219 C 66.550781 42.683594 66.597656 42.121094 66.371094 41.894531 C 66.207031 41.726562 65.8125 41.714844 65.574219 41.855469 Z M 65.574219 41.855469 "/>
<path style=" stroke:none;fill-rule:nonzero;fill:rgb(0%,0%,0%);fill-opacity:1;" d="M 34.9375 43.769531 C 34.746094 43.972656 34.601562 44.152344 34.636719 44.191406 C 34.78125 44.320312 35.246094 44.511719 35.292969 44.464844 C 35.328125 44.429688 35.339844 44.175781 35.316406 43.902344 L 35.28125 43.398438 Z M 34.9375 43.769531 "/>
<path style=" stroke:none;fill-rule:nonzero;fill:rgb(0%,0%,0%);fill-opacity:1;" d="M 37.613281 45.121094 C 37.195312 46.355469 37.21875 46.414062 38.03125 46.414062 C 38.660156 46.414062 39.027344 46.03125 39.113281 45.289062 C 39.171875 44.8125 39.136719 44.714844 38.816406 44.382812 C 38.195312 43.769531 38.03125 43.867188 37.613281 45.121094 Z M 37.613281 45.121094 "/>
<path style=" stroke:none;fill-rule:nonzero;fill:rgb(0%,0%,0%);fill-opacity:1;" d="M 56.304688 45.074219 C 56.066406 45.109375 56.042969 45.171875 56.105469 45.492188 C 56.28125 46.390625 56.367188 46.449219 56.855469 46.105469 C 57.390625 45.734375 56.972656 44.957031 56.304688 45.074219 Z M 56.304688 45.074219 "/>
</g>
</svg>
