<svg width="18" height="12" viewBox="0 0 18 12" fill="none" xmlns="http://www.w3.org/2000/svg">
<path d="M17.425 1.19688C17.0647 0.965438 16.6163 0.934656 16.2288 1.11287L13 2.59375V2C13 0.895313 12.1047 0 11 0H2C0.895313 0 0 0.895313 0 2V10C0 11.1047 0.895313 12 2 12H11C12.1047 12 13 11.1047 13 10V9.40563L16.2281 10.8856C16.3951 10.9623 16.5728 11.0004 16.7497 11.0004C16.985 11.0004 17.2191 10.9335 17.4244 10.8017C17.7844 10.5719 18 10.1781 18 9.72188V2.25C18 1.82187 17.7844 1.43125 17.425 1.19688ZM11.5 10C11.5 10.2757 11.2757 10.5 11 10.5H2C1.72431 10.5 1.5 10.2757 1.5 10V2C1.5 1.72431 1.72431 1.5 2 1.5H11C11.2757 1.5 11.5 1.72431 11.5 2V10ZM16.5 9.35938L13 7.75625V4.24375L16.5 2.63969V9.35938Z" fill="#002FA7"/>
</svg>
