<svg width="66" height="18" viewBox="0 0 66 18" fill="none" xmlns="http://www.w3.org/2000/svg">
<path d="M26.9977 4.576C27.8857 4.576 28.6617 4.752 29.3257 5.104C29.9897 5.456 30.5017 5.952 30.8617 6.592C31.2297 7.224 31.4137 7.956 31.4137 8.788C31.4137 9.612 31.2297 10.344 30.8617 10.984C30.5017 11.624 29.9857 12.12 29.3137 12.472C28.6497 12.824 27.8777 13 26.9977 13H23.8417V4.576H26.9977ZM26.8657 11.224C27.6417 11.224 28.2457 11.012 28.6777 10.588C29.1097 10.164 29.3257 9.564 29.3257 8.788C29.3257 8.012 29.1097 7.408 28.6777 6.976C28.2457 6.544 27.6417 6.328 26.8657 6.328H25.8937V11.224H26.8657ZM38.8724 9.544C38.8724 9.736 38.8604 9.936 38.8364 10.144H34.1924C34.2244 10.56 34.3564 10.88 34.5884 11.104C34.8284 11.32 35.1204 11.428 35.4644 11.428C35.9764 11.428 36.3324 11.212 36.5324 10.78H38.7164C38.6044 11.22 38.4004 11.616 38.1044 11.968C37.8164 12.32 37.4524 12.596 37.0124 12.796C36.5724 12.996 36.0804 13.096 35.5364 13.096C34.8804 13.096 34.2964 12.956 33.7844 12.676C33.2724 12.396 32.8724 11.996 32.5844 11.476C32.2964 10.956 32.1524 10.348 32.1524 9.652C32.1524 8.956 32.2924 8.348 32.5724 7.828C32.8604 7.308 33.2604 6.908 33.7724 6.628C34.2844 6.348 34.8724 6.208 35.5364 6.208C36.1844 6.208 36.7604 6.344 37.2644 6.616C37.7684 6.888 38.1604 7.276 38.4404 7.78C38.7284 8.284 38.8724 8.872 38.8724 9.544ZM36.7724 9.004C36.7724 8.652 36.6524 8.372 36.4124 8.164C36.1724 7.956 35.8724 7.852 35.5124 7.852C35.1684 7.852 34.8764 7.952 34.6364 8.152C34.4044 8.352 34.2604 8.636 34.2044 9.004H36.7724ZM43.6869 11.26V13H42.6429C41.8989 13 41.3189 12.82 40.9029 12.46C40.4869 12.092 40.2789 11.496 40.2789 10.672V8.008H39.4629V6.304H40.2789V4.672H42.3309V6.304H43.6749V8.008H42.3309V10.696C42.3309 10.896 42.3789 11.04 42.4749 11.128C42.5709 11.216 42.7309 11.26 42.9549 11.26H43.6869ZM44.4219 9.64C44.4219 8.952 44.5499 8.348 44.8059 7.828C45.0699 7.308 45.4259 6.908 45.8739 6.628C46.3219 6.348 46.8219 6.208 47.3739 6.208C47.8459 6.208 48.2579 6.304 48.6099 6.496C48.9699 6.688 49.2459 6.94 49.4379 7.252V6.304H51.4899V13H49.4379V12.052C49.2379 12.364 48.9579 12.616 48.5979 12.808C48.2459 13 47.8339 13.096 47.3619 13.096C46.8179 13.096 46.3219 12.956 45.8739 12.676C45.4259 12.388 45.0699 11.984 44.8059 11.464C44.5499 10.936 44.4219 10.328 44.4219 9.64ZM49.4379 9.652C49.4379 9.14 49.2939 8.736 49.0059 8.44C48.7259 8.144 48.3819 7.996 47.9739 7.996C47.5659 7.996 47.2179 8.144 46.9299 8.44C46.6499 8.728 46.5099 9.128 46.5099 9.64C46.5099 10.152 46.6499 10.56 46.9299 10.864C47.2179 11.16 47.5659 11.308 47.9739 11.308C48.3819 11.308 48.7259 11.16 49.0059 10.864C49.2939 10.568 49.4379 10.164 49.4379 9.652ZM54.0065 5.608C53.6465 5.608 53.3505 5.504 53.1185 5.296C52.8945 5.08 52.7825 4.816 52.7825 4.504C52.7825 4.184 52.8945 3.92 53.1185 3.712C53.3505 3.496 53.6465 3.388 54.0065 3.388C54.3585 3.388 54.6465 3.496 54.8705 3.712C55.1025 3.92 55.2185 4.184 55.2185 4.504C55.2185 4.816 55.1025 5.08 54.8705 5.296C54.6465 5.504 54.3585 5.608 54.0065 5.608ZM55.0265 6.304V13H52.9745V6.304H55.0265ZM58.5655 4.12V13H56.5135V4.12H58.5655ZM62.7766 13.096C62.1926 13.096 61.6726 12.996 61.2166 12.796C60.7606 12.596 60.4006 12.324 60.1366 11.98C59.8726 11.628 59.7246 11.236 59.6926 10.804H61.7206C61.7446 11.036 61.8526 11.224 62.0446 11.368C62.2366 11.512 62.4726 11.584 62.7526 11.584C63.0086 11.584 63.2046 11.536 63.3406 11.44C63.4846 11.336 63.5566 11.204 63.5566 11.044C63.5566 10.852 63.4566 10.712 63.2566 10.624C63.0566 10.528 62.7326 10.424 62.2846 10.312C61.8046 10.2 61.4046 10.084 61.0846 9.964C60.7646 9.836 60.4886 9.64 60.2566 9.376C60.0246 9.104 59.9086 8.74 59.9086 8.284C59.9086 7.9 60.0126 7.552 60.2206 7.24C60.4366 6.92 60.7486 6.668 61.1566 6.484C61.5726 6.3 62.0646 6.208 62.6326 6.208C63.4726 6.208 64.1326 6.416 64.6126 6.832C65.1006 7.248 65.3806 7.8 65.4526 8.488H63.5566C63.5246 8.256 63.4206 8.072 63.2446 7.936C63.0766 7.8 62.8526 7.732 62.5726 7.732C62.3326 7.732 62.1486 7.78 62.0206 7.876C61.8926 7.964 61.8286 8.088 61.8286 8.248C61.8286 8.44 61.9286 8.584 62.1286 8.68C62.3366 8.776 62.6566 8.872 63.0886 8.968C63.5846 9.096 63.9886 9.224 64.3006 9.352C64.6126 9.472 64.8846 9.672 65.1166 9.952C65.3566 10.224 65.4806 10.592 65.4886 11.056C65.4886 11.448 65.3766 11.8 65.1526 12.112C64.9366 12.416 64.6206 12.656 64.2046 12.832C63.7966 13.008 63.3206 13.096 62.7766 13.096Z" fill="#828282"/>
<g clip-path="url(#clip0_1042_1699)">
<path d="M10.5 5.25V0.345C11.1938 0.607001 11.824 1.01348 12.3488 1.5375L14.9618 4.152C15.4864 4.67616 15.8932 5.30617 16.155 6H11.25C11.0511 6 10.8603 5.92098 10.7197 5.78033C10.579 5.63968 10.5 5.44891 10.5 5.25ZM16.5 7.86375V14.25C16.4988 15.2442 16.1033 16.1973 15.4003 16.9003C14.6973 17.6033 13.7442 17.9988 12.75 18H5.25C4.2558 17.9988 3.30267 17.6033 2.59967 16.9003C1.89666 16.1973 1.50119 15.2442 1.5 14.25V3.75C1.50119 2.7558 1.89666 1.80267 2.59967 1.09966C3.30267 0.396661 4.2558 0.00119089 5.25 0L8.63625 0C8.7585 0 8.87925 0.00975 9 0.018V5.25C9 5.84674 9.23705 6.41903 9.65901 6.84099C10.081 7.26295 10.6533 7.5 11.25 7.5H16.482C16.4903 7.62075 16.5 7.7415 16.5 7.86375ZM10.5 14.25C10.5 14.0511 10.421 13.8603 10.2803 13.7197C10.1397 13.579 9.94891 13.5 9.75 13.5H6C5.80109 13.5 5.61032 13.579 5.46967 13.7197C5.32902 13.8603 5.25 14.0511 5.25 14.25C5.25 14.4489 5.32902 14.6397 5.46967 14.7803C5.61032 14.921 5.80109 15 6 15H9.75C9.94891 15 10.1397 14.921 10.2803 14.7803C10.421 14.6397 10.5 14.4489 10.5 14.25ZM12.75 11.25C12.75 11.0511 12.671 10.8603 12.5303 10.7197C12.3897 10.579 12.1989 10.5 12 10.5H6C5.80109 10.5 5.61032 10.579 5.46967 10.7197C5.32902 10.8603 5.25 11.0511 5.25 11.25C5.25 11.4489 5.32902 11.6397 5.46967 11.7803C5.61032 11.921 5.80109 12 6 12H12C12.1989 12 12.3897 11.921 12.5303 11.7803C12.671 11.6397 12.75 11.4489 12.75 11.25Z" fill="#828282"/>
</g>
<defs>
<clipPath id="clip0_1042_1699">
<rect width="18" height="18" fill="white"/>
</clipPath>
</defs>
</svg>
