<svg width="84" height="75" viewBox="0 0 84 75" fill="none" xmlns="http://www.w3.org/2000/svg">
<path d="M11.6667 60.9375H72.3333C73.6219 60.9375 74.6667 59.8881 74.6667 58.5938C74.6667 57.2994 73.6167 56.25 72.3333 56.25H70V11.7188C70 7.83545 66.8646 4.6875 63 4.6875H21C17.1354 4.6875 14 7.83545 14 11.7188V56.25H11.6667C10.3775 56.25 9.33333 57.3047 9.33333 58.5938C9.33333 59.8828 10.3775 60.9375 11.6667 60.9375ZM18.6667 11.7188C18.6667 10.4238 19.7167 9.375 21 9.375H63C64.2833 9.375 65.3333 10.4238 65.3333 11.7188V56.25H18.6667V11.7188ZM77 46.875C75.7103 46.875 74.6667 47.9232 74.6667 49.2188C74.6667 50.5143 75.7103 51.5625 77 51.5625C78.2851 51.5625 79.3333 52.6131 79.3333 53.9062V63.2812C79.3333 64.5744 78.2851 65.625 77 65.625H7C5.71521 65.625 4.66667 64.5703 4.66667 63.2812V53.9062C4.66667 52.6172 5.71521 51.5625 7 51.5625C8.28917 51.5625 9.33333 50.5078 9.33333 49.2188C9.33333 47.9297 8.28917 46.875 7 46.875C3.13979 46.875 0 50.0244 0 53.9062V63.2812C0 67.1631 3.13979 70.3125 7 70.3125H77C80.8602 70.3125 84 67.1587 84 63.2812V53.9062C84 50.0244 80.8646 46.875 77 46.875Z" fill="#828282"/>
<g clip-path="url(#clip0_2567_938)">
<path d="M42.5 19C35.0434 19 29 25.0434 29 32.5C29 39.9566 35.0434 46 42.5 46C49.9566 46 56 39.9566 56 32.5C56 25.0434 49.9566 19 42.5 19ZM42.5 43.4688C36.4514 43.4688 31.5312 38.5481 31.5312 32.5C31.5312 26.4519 36.4514 21.5312 42.5 21.5312C48.5486 21.5312 53.4688 26.4519 53.4688 32.5C53.4688 38.5481 48.5486 43.4688 42.5 43.4688ZM42.5 35.0312C43.1987 35.0312 43.7656 34.4644 43.7656 33.7656V27.0156C43.7656 26.3195 43.2014 25.75 42.5 25.75C41.7986 25.75 41.2344 26.3195 41.2344 27.0156V33.7656C41.2344 34.467 41.8039 35.0312 42.5 35.0312ZM42.5 36.7768C41.5845 36.7768 40.842 37.5193 40.842 38.4347C40.8441 39.3502 41.5824 40.0938 42.5 40.0938C43.4176 40.0938 44.158 39.3512 44.158 38.4358C44.1559 37.5203 43.4176 36.7768 42.5 36.7768Z" fill="#828282"/>
</g>
<defs>
<clipPath id="clip0_2567_938">
<rect width="27" height="27" fill="white" transform="translate(29 19)"/>
</clipPath>
</defs>
</svg>
