<svg width="84" height="75" viewBox="0 0 84 75" fill="none" xmlns="http://www.w3.org/2000/svg">
<path d="M11.6667 60.9375H72.3333C73.6219 60.9375 74.6667 59.8881 74.6667 58.5938C74.6667 57.2994 73.6167 56.25 72.3333 56.25H70V11.7188C70 7.83545 66.8646 4.6875 63 4.6875H21C17.1354 4.6875 14 7.83545 14 11.7188V56.25H11.6667C10.3775 56.25 9.33333 57.3047 9.33333 58.5938C9.33333 59.8828 10.3775 60.9375 11.6667 60.9375ZM18.6667 11.7188C18.6667 10.4238 19.7167 9.375 21 9.375H63C64.2833 9.375 65.3333 10.4238 65.3333 11.7188V56.25H18.6667V11.7188ZM77 46.875C75.7103 46.875 74.6667 47.9232 74.6667 49.2188C74.6667 50.5143 75.7103 51.5625 77 51.5625C78.2851 51.5625 79.3333 52.6131 79.3333 53.9062V63.2812C79.3333 64.5744 78.2851 65.625 77 65.625H7C5.71521 65.625 4.66667 64.5703 4.66667 63.2812V53.9062C4.66667 52.6172 5.71521 51.5625 7 51.5625C8.28917 51.5625 9.33333 50.5078 9.33333 49.2188C9.33333 47.9297 8.28917 46.875 7 46.875C3.13979 46.875 0 50.0244 0 53.9062V63.2812C0 67.1631 3.13979 70.3125 7 70.3125H77C80.8602 70.3125 84 67.1587 84 63.2812V53.9062C84 50.0244 80.8646 46.875 77 46.875Z" fill="#828282"/>
<g clip-path="url(#clip0_2567_945)">
<path d="M56 32.5C56 39.9566 49.9566 46 42.5 46C35.0434 46 29 39.9566 29 32.5C29 29.6893 29.859 27.0789 31.3282 24.9168C31.7211 24.342 32.5084 24.1906 33.0864 24.5846C33.6644 24.9748 33.8146 25.7658 33.4218 26.3406C32.2284 28.0967 31.4838 30.2166 31.4838 32.5C31.4838 38.5592 36.4408 43.4688 42.4525 43.4688C48.5592 43.4688 53.4688 38.5592 53.4688 32.5C53.4688 26.868 49.2289 22.231 43.7656 21.6035V24.4844C43.7656 25.1857 43.2014 25.75 42.4525 25.75C41.7986 25.75 41.1869 25.1857 41.1869 24.4844V20.2656C41.1869 19.5669 41.7986 19 42.4525 19C49.9566 19 56 25.0434 56 32.5ZM43.349 31.6035C43.8869 32.0992 43.8869 32.9008 43.349 33.349C42.9008 33.8869 42.0992 33.8869 41.6035 33.349L37.3848 29.1303C36.8943 28.682 36.8943 27.8805 37.3848 27.3848C37.8805 26.8943 38.682 26.8943 39.1303 27.3848L43.349 31.6035Z" fill="#828282"/>
</g>
<defs>
<clipPath id="clip0_2567_945">
<rect width="27" height="27" fill="white" transform="translate(29 19)"/>
</clipPath>
</defs>
</svg>
