<svg width="13" height="13" viewBox="0 0 13 13" fill="none" xmlns="http://www.w3.org/2000/svg">
<path d="M12.9899 0.936149L11.3649 11.4758C11.3268 11.7229 11.1777 11.9384 10.9594 12.0611C10.8364 12.1301 10.6987 12.1651 10.5613 12.1651C10.455 12.1651 10.3501 12.1444 10.2493 12.1023L7.13637 10.8049L5.845 12.7419C5.74598 12.9114 5.58094 13.0003 5.40321 13.0003C5.11122 13.0003 4.87508 12.7641 4.87508 12.4721V10.0301C4.87508 9.8494 4.93531 9.67383 5.04627 9.53138L10.5626 2.43775L3.10536 9.14849L0.500024 8.06177C0.214329 7.94244 0.0207125 7.6733 0.00166955 7.34068C-0.0173734 7.00806 0.140531 6.73841 0.409443 6.5848L11.7844 0.107653C12.0559 -0.0474586 12.3908 -0.0331891 12.6477 0.143352C12.9047 0.319893 13.0382 0.627907 12.9899 0.936149Z" fill="white"/>
</svg>
