<svg width="18" height="16" viewBox="0 0 18 16" fill="none" xmlns="http://www.w3.org/2000/svg">
<g clip-path="url(#clip0_1050_264)">
<path d="M15 3.99999C13.8953 3.99999 13 4.8953 13 5.97187C13 6.81062 13.5175 7.52655 14.25 7.82343V10.75C14.25 12.8175 12.5678 14.5 10.5 14.5C8.49125 14.5 6.85938 12.9084 6.76875 10.9219C9.15938 10.55 11 8.49374 11 5.97187V1.78437C11 1.50018 10.8393 1.2403 10.5853 1.11343L8.46031 0.0509291C8.09063 -0.10554 7.64062 0.0438666 7.45312 0.414992C7.26875 0.784992 7.41875 1.2353 7.79063 1.42093L9.5 2.27624V5.99999C9.5 7.92968 7.92969 9.49999 6 9.49999C4.07031 9.49999 2.5 7.93124 2.5 5.99999V2.27624L4.21031 1.42062C4.58125 1.2353 4.73125 0.784992 4.54688 0.414992C4.3625 0.0438666 3.9125 -0.10554 3.54063 0.0790229L1.41562 1.14152C1.16062 1.26843 1 1.52812 1 1.78437V5.97187C1 8.47812 2.85969 10.5406 5.26875 10.8969C5.3625 13.7375 7.66563 16 10.5 16C13.395 16 15.75 13.6444 15.75 10.75V7.85312C16.4812 7.55624 17 6.83749 17 5.99999C17 4.89687 16.1031 3.99999 15 3.99999ZM15 6.49999C14.7243 6.49999 14.5 6.27568 14.5 5.99999C14.5 5.7243 14.7243 5.49999 15 5.49999C15.2757 5.49999 15.5 5.7243 15.5 5.99999C15.5 6.27568 15.275 6.49999 15 6.49999Z" fill="#002FA7"/>
</g>
<defs>
<clipPath id="clip0_1050_264">
<rect width="18" height="16" fill="white"/>
</clipPath>
</defs>
</svg>
