<svg width="71" height="71" viewBox="0 0 71 71" fill="none" xmlns="http://www.w3.org/2000/svg">
<g clip-path="url(#clip0_2675_71)">
<path d="M71 35.5C71 55.1064 55.1064 71 35.5 71C15.8936 71 0 55.1064 0 35.5C0 15.8936 15.8936 0 35.5 0C55.1064 0 71 15.8936 71 35.5Z" fill="#E0E0E0"/>
<path d="M41.632 35.9723C44.1096 34.1476 45.7146 31.2482 45.7146 27.9887C45.7146 22.481 41.1324 18 35.4998 18C29.8676 18 25.2854 22.481 25.2854 27.9887C25.2854 31.2482 26.89 34.1476 29.3676 35.9723C23.2159 38.2304 18.6977 43.7828 18.0738 50.4213C17.9922 51.2903 18.7076 52 19.5804 52C20.4532 52 21.1512 51.2895 21.2509 50.4224C22.055 43.4302 28.1387 37.9778 35.5002 37.9778C42.8614 37.9778 48.945 43.4302 49.7491 50.4224C49.8488 51.2895 50.5468 52 51.4196 52C52.2924 52 53.0078 51.2902 52.9261 50.4213C52.3019 43.7828 47.784 38.2304 41.632 35.9723ZM28.4461 27.9887C28.4461 24.185 31.6102 21.0909 35.4998 21.0909C39.3894 21.0909 42.5535 24.185 42.5535 27.9887C42.5535 31.7924 39.3894 34.8869 35.4998 34.8869C31.6102 34.8869 28.4461 31.7924 28.4461 27.9887Z" fill="#FBFEFF"/>
</g>
<defs>
<clipPath id="clip0_2675_71">
<rect width="71" height="71" fill="white"/>
</clipPath>
</defs>
</svg>
